<svg width="167" height="65" viewBox="0 0 167 65" fill="none" xmlns="http://www.w3.org/2000/svg">
<g filter="url(#filter0_d)">
<g clip-path="url(#clip0)">
<path d="M72.394 38V25.845H74.655V36.198H79.84V38H72.394ZM85.5313 38.17C84.2053 38.17 83.1229 37.762 82.2843 36.946C81.4456 36.13 81.0263 35.0307 81.0263 33.648V33.512C81.0263 32.152 81.4399 31.047 82.2673 30.197C83.1059 29.347 84.1656 28.922 85.4463 28.922C86.6476 28.922 87.6449 29.296 88.4383 30.044C89.2429 30.792 89.6453 31.914 89.6453 33.41V34.005H83.1343C83.1683 34.855 83.3949 35.5067 83.8143 35.96C84.2336 36.4133 84.8229 36.64 85.5823 36.64C86.7836 36.64 87.4636 36.1867 87.6223 35.28H89.6113C89.4639 36.2093 89.0333 36.9233 88.3193 37.422C87.6053 37.9207 86.6759 38.17 85.5313 38.17ZM83.1683 32.628H87.6053C87.5033 31.1547 86.7836 30.418 85.4463 30.418C84.8343 30.418 84.3243 30.6163 83.9163 31.013C83.5196 31.3983 83.2703 31.9367 83.1683 32.628ZM94.0946 38.17C93.2219 38.17 92.5079 37.9547 91.9526 37.524C91.3973 37.082 91.1196 36.419 91.1196 35.535C91.1196 34.5603 91.5333 33.8463 92.3606 33.393C93.1879 32.9397 94.2929 32.713 95.6756 32.713H96.7806V32.254C96.7806 31.642 96.6559 31.1943 96.4066 30.911C96.1686 30.6163 95.7549 30.469 95.1656 30.469C94.1343 30.469 93.5676 30.9337 93.4656 31.863H91.4766C91.5559 30.877 91.9413 30.1403 92.6326 29.653C93.3353 29.1657 94.2193 28.922 95.2846 28.922C97.6533 28.922 98.8376 30.0043 98.8376 32.169V38H96.8146V36.912C96.1799 37.7507 95.2733 38.17 94.0946 38.17ZM94.5876 36.691C95.2336 36.691 95.7606 36.5323 96.1686 36.215C96.5766 35.8863 96.7806 35.4443 96.7806 34.889V34.005H95.7266C94.0153 34.005 93.1596 34.4867 93.1596 35.45C93.1596 36.2773 93.6356 36.691 94.5876 36.691ZM101.395 38V29.109H103.452V30.775C104.042 29.585 105.005 28.9843 106.342 28.973V30.894C105.379 30.9053 104.654 31.098 104.166 31.472C103.69 31.846 103.452 32.4807 103.452 33.376V38H101.395ZM108.352 38V29.109H110.409V30.52C110.636 30.0553 110.998 29.6757 111.497 29.381C111.996 29.075 112.591 28.922 113.282 28.922C114.223 28.922 114.965 29.211 115.509 29.789C116.053 30.3557 116.325 31.2283 116.325 32.407V38H114.268V32.594C114.268 31.9253 114.126 31.4323 113.843 31.115C113.56 30.7977 113.112 30.639 112.5 30.639C111.888 30.639 111.384 30.826 110.987 31.2C110.602 31.5627 110.409 32.084 110.409 32.764V38H108.352ZM123.316 38V25.845H126.342L129.538 34.141L132.666 25.845H135.658V38H133.397V28.82L129.776 38H129.045L125.356 28.82V38H123.316ZM142.365 36.572C143.124 36.572 143.719 36.3113 144.15 35.79C144.592 35.2573 144.813 34.532 144.813 33.614V33.495C144.813 32.577 144.592 31.8573 144.15 31.336C143.719 30.8033 143.124 30.537 142.365 30.537C141.594 30.537 140.988 30.7977 140.546 31.319C140.115 31.8403 139.9 32.56 139.9 33.478V33.614C139.9 34.532 140.115 35.2573 140.546 35.79C140.988 36.3113 141.594 36.572 142.365 36.572ZM145.629 36.912C144.767 37.7507 143.674 38.17 142.348 38.17C141.022 38.17 139.928 37.7507 139.067 36.912C138.217 36.0733 137.792 34.9853 137.792 33.648V33.512C137.792 32.152 138.222 31.047 139.084 30.197C139.945 29.347 141.039 28.922 142.365 28.922C143.679 28.922 144.767 29.3413 145.629 30.18C146.49 31.0187 146.921 32.1123 146.921 33.461V33.597C146.921 34.9683 146.49 36.0733 145.629 36.912ZM148.979 38V29.109H151.036V30.775C151.626 29.585 152.589 28.9843 153.926 28.973V30.894C152.963 30.9053 152.238 31.098 151.75 31.472C151.274 31.846 151.036 32.4807 151.036 33.376V38H148.979ZM159.68 38.17C158.354 38.17 157.272 37.762 156.433 36.946C155.594 36.13 155.175 35.0307 155.175 33.648V33.512C155.175 32.152 155.589 31.047 156.416 30.197C157.255 29.347 158.314 28.922 159.595 28.922C160.796 28.922 161.794 29.296 162.587 30.044C163.392 30.792 163.794 31.914 163.794 33.41V34.005H157.283C157.317 34.855 157.544 35.5067 157.963 35.96C158.382 36.4133 158.972 36.64 159.731 36.64C160.932 36.64 161.612 36.1867 161.771 35.28H163.76C163.613 36.2093 163.182 36.9233 162.468 37.422C161.754 37.9207 160.825 38.17 159.68 38.17ZM157.317 32.628H161.754C161.652 31.1547 160.932 30.418 159.595 30.418C158.983 30.418 158.473 30.6163 158.065 31.013C157.668 31.3983 157.419 31.9367 157.317 32.628Z" fill="white"/>
</g>
<rect x="31.5" y="0.5" width="135" height="64" stroke="white"/>
</g>
<defs>
<filter id="filter0_d" x="0" y="-27" width="198" height="127" filterUnits="userSpaceOnUse" color-interpolation-filters="sRGB">
<feFlood flood-opacity="0" result="BackgroundImageFix"/>
<feColorMatrix in="SourceAlpha" type="matrix" values="0 0 0 0 0 0 0 0 0 0 0 0 0 0 0 0 0 0 127 0"/>
<feOffset dy="4"/>
<feGaussianBlur stdDeviation="15.5"/>
<feColorMatrix type="matrix" values="0 0 0 0 0 0 0 0 0 0 0 0 0 0 0 0 0 0 0.15 0"/>
<feBlend mode="normal" in2="BackgroundImageFix" result="effect1_dropShadow"/>
<feBlend mode="normal" in="SourceGraphic" in2="effect1_dropShadow" result="shape"/>
</filter>
<clipPath id="clip0">
<rect width="76" height="45" fill="white" transform="translate(61 10)"/>
</clipPath>
</defs>
</svg>
