<svg width="1579" height="393" viewBox="0 0 1579 393" fill="none" xmlns="http://www.w3.org/2000/svg">
<path d="M451.581 130L437.341 72.8H448.221L458.141 114.8L469.261 72.8H478.061L489.421 115.04L499.661 72.8H509.581L495.261 130H484.621L473.341 88.32L461.741 130H451.581ZM532.753 123.28C536.327 123.28 539.127 122.053 541.153 119.6C543.233 117.093 544.273 113.68 544.273 109.36V108.8C544.273 104.48 543.233 101.093 541.153 98.64C539.127 96.1333 536.327 94.88 532.753 94.88C529.127 94.88 526.273 96.1067 524.193 98.56C522.167 101.013 521.153 104.4 521.153 108.72V109.36C521.153 113.68 522.167 117.093 524.193 119.6C526.273 122.053 529.127 123.28 532.753 123.28ZM548.113 124.88C544.06 128.827 538.913 130.8 532.673 130.8C526.433 130.8 521.287 128.827 517.233 124.88C513.233 120.933 511.233 115.813 511.233 109.52V108.88C511.233 102.48 513.26 97.28 517.313 93.28C521.367 89.28 526.513 87.28 532.753 87.28C538.94 87.28 544.06 89.2533 548.113 93.2C552.167 97.1467 554.193 102.293 554.193 108.64V109.28C554.193 115.733 552.167 120.933 548.113 124.88ZM563.14 130V88.16H572.82V96C575.593 90.4 580.126 87.5733 586.42 87.52V96.56C581.886 96.6133 578.473 97.52 576.18 99.28C573.94 101.04 572.82 104.027 572.82 108.24V130H563.14ZM595.137 130V68.8H604.817V106.56L619.777 88.16H630.337L614.097 107.36L631.697 130H620.497L604.817 109.44V130H595.137ZM668.762 130.8C664.656 130.8 661.296 129.787 658.682 127.76C656.069 125.68 654.762 122.56 654.762 118.4C654.762 113.813 656.709 110.453 660.602 108.32C664.496 106.187 669.696 105.12 676.202 105.12H681.402V102.96C681.402 100.08 680.816 97.9733 679.642 96.64C678.522 95.2533 676.576 94.56 673.802 94.56C668.949 94.56 666.282 96.7467 665.802 101.12H656.442C656.816 96.48 658.629 93.0133 661.882 90.72C665.189 88.4267 669.349 87.28 674.362 87.28C685.509 87.28 691.082 92.3733 691.082 102.56V130H681.562V124.88C678.576 128.827 674.309 130.8 668.762 130.8ZM671.082 123.84C674.122 123.84 676.602 123.093 678.522 121.6C680.442 120.053 681.402 117.973 681.402 115.36V111.2H676.442C668.389 111.2 664.362 113.467 664.362 118C664.362 121.893 666.602 123.84 671.082 123.84ZM716.617 130.72C712.511 130.72 709.364 129.653 707.177 127.52C705.044 125.387 703.977 122.32 703.977 118.32V95.44H698.377V88.16H703.977V78.96H713.657V88.16H722.857V95.44H713.657V117.44C713.657 121.013 715.257 122.8 718.457 122.8C720.324 122.8 721.897 122.533 723.177 122V129.68C721.311 130.373 719.124 130.72 716.617 130.72ZM765.611 130.72C761.504 130.72 758.358 129.653 756.171 127.52C754.038 125.387 752.971 122.32 752.971 118.32V95.44H747.371V88.16H752.971V78.96H762.651V88.16H771.851V95.44H762.651V117.44C762.651 121.013 764.251 122.8 767.451 122.8C769.318 122.8 770.891 122.533 772.171 122V129.68C770.304 130.373 768.118 130.72 765.611 130.72ZM781.102 130V68.8H790.782V94.8C791.849 92.6133 793.555 90.8267 795.902 89.44C798.249 88 801.049 87.28 804.302 87.28C808.729 87.28 812.222 88.64 814.782 91.36C817.342 94.0267 818.622 98.1333 818.622 103.68V130H808.942V104.56C808.942 101.413 808.275 99.0933 806.942 97.6C805.609 96.1067 803.502 95.36 800.622 95.36C797.742 95.36 795.369 96.24 793.502 98C791.689 99.7067 790.782 102.16 790.782 105.36V130H781.102ZM848.374 130.8C842.134 130.8 837.041 128.88 833.094 125.04C829.147 121.2 827.174 116.027 827.174 109.52V108.88C827.174 102.48 829.121 97.28 833.014 93.28C836.961 89.28 841.947 87.28 847.974 87.28C853.627 87.28 858.321 89.04 862.054 92.56C865.841 96.08 867.734 101.36 867.734 108.4V111.2H837.094C837.254 115.2 838.321 118.267 840.294 120.4C842.267 122.533 845.041 123.6 848.614 123.6C854.267 123.6 857.467 121.467 858.214 117.2H867.574C866.881 121.573 864.854 124.933 861.494 127.28C858.134 129.627 853.761 130.8 848.374 130.8ZM837.254 104.72H858.134C857.654 97.7867 854.267 94.32 847.974 94.32C845.094 94.32 842.694 95.2533 840.774 97.12C838.907 98.9333 837.734 101.467 837.254 104.72ZM910.163 130.8C904.776 130.8 900.563 129.6 897.523 127.2C894.483 124.8 892.856 121.387 892.643 116.96H901.763C902.029 119.2 902.803 120.88 904.083 122C905.363 123.12 907.363 123.68 910.083 123.68C915.096 123.68 917.603 121.893 917.603 118.32C917.603 116.667 916.909 115.44 915.523 114.64C914.189 113.787 911.896 113.093 908.643 112.56C903.043 111.653 899.123 110.293 896.883 108.48C894.643 106.613 893.523 103.733 893.523 99.84C893.523 95.8933 895.069 92.8267 898.163 90.64C901.256 88.4 904.936 87.28 909.203 87.28C919.229 87.28 924.696 91.4933 925.603 99.92H916.643C916.216 98 915.416 96.5867 914.243 95.68C913.123 94.7733 911.443 94.32 909.203 94.32C907.123 94.32 905.496 94.7733 904.323 95.68C903.149 96.5867 902.563 97.7867 902.563 99.28C902.563 100.773 903.176 101.893 904.403 102.64C905.629 103.387 907.896 104.053 911.203 104.64C916.643 105.493 920.616 106.8 923.123 108.56C925.629 110.32 926.883 113.28 926.883 117.44C926.883 121.707 925.416 125.013 922.483 127.36C919.603 129.653 915.496 130.8 910.163 130.8ZM935.574 144.32V88.16H945.254V94.88C946.481 92.7467 948.321 90.96 950.774 89.52C953.281 88.0267 956.001 87.28 958.934 87.28C964.321 87.28 968.747 89.2 972.214 93.04C975.734 96.8267 977.494 102 977.494 108.56V109.2C977.494 115.813 975.761 121.067 972.294 124.96C968.881 128.853 964.427 130.8 958.934 130.8C955.787 130.8 953.014 130.133 950.614 128.8C948.214 127.413 946.427 125.627 945.254 123.44V144.32H935.574ZM956.534 123.12C960.107 123.12 962.827 121.947 964.694 119.6C966.614 117.253 967.574 113.84 967.574 109.36V108.72C967.574 104.24 966.534 100.827 964.454 98.48C962.427 96.08 959.761 94.88 956.454 94.88C952.987 94.88 950.187 96.08 948.054 98.48C945.974 100.827 944.934 104.24 944.934 108.72V109.36C944.934 113.893 945.947 117.333 947.974 119.68C950.054 121.973 952.907 123.12 956.534 123.12ZM1004.8 130.8C998.559 130.8 993.466 128.88 989.519 125.04C985.572 121.2 983.599 116.027 983.599 109.52V108.88C983.599 102.48 985.546 97.28 989.439 93.28C993.386 89.28 998.372 87.28 1004.4 87.28C1010.05 87.28 1014.75 89.04 1018.48 92.56C1022.27 96.08 1024.16 101.36 1024.16 108.4V111.2H993.519C993.679 115.2 994.746 118.267 996.719 120.4C998.692 122.533 1001.47 123.6 1005.04 123.6C1010.69 123.6 1013.89 121.467 1014.64 117.2H1024C1023.31 121.573 1021.28 124.933 1017.92 127.28C1014.56 129.627 1010.19 130.8 1004.8 130.8ZM993.679 104.72H1014.56C1014.08 97.7867 1010.69 94.32 1004.4 94.32C1001.52 94.32 999.119 95.2533 997.199 97.12C995.332 98.9333 994.159 101.467 993.679 104.72ZM1051.41 130.8C1045.17 130.8 1040.07 128.88 1036.13 125.04C1032.18 121.2 1030.21 116.027 1030.21 109.52V108.88C1030.21 102.48 1032.15 97.28 1036.05 93.28C1039.99 89.28 1044.98 87.28 1051.01 87.28C1056.66 87.28 1061.35 89.04 1065.09 92.56C1068.87 96.08 1070.77 101.36 1070.77 108.4V111.2H1040.13C1040.29 115.2 1041.35 118.267 1043.33 120.4C1045.3 122.533 1048.07 123.6 1051.65 123.6C1057.3 123.6 1060.5 121.467 1061.25 117.2H1070.61C1069.91 121.573 1067.89 124.933 1064.53 127.28C1061.17 129.627 1056.79 130.8 1051.41 130.8ZM1040.29 104.72H1061.17C1060.69 97.7867 1057.3 94.32 1051.01 94.32C1048.13 94.32 1045.73 95.2533 1043.81 97.12C1041.94 98.9333 1040.77 101.467 1040.29 104.72ZM1095.29 130.8C1089.85 130.8 1085.42 128.96 1082.01 125.28C1078.6 121.547 1076.89 116.373 1076.89 109.76V109.12C1076.89 102.507 1078.65 97.2267 1082.17 93.28C1085.69 89.28 1090.2 87.28 1095.69 87.28C1101.88 87.28 1106.33 89.7067 1109.05 94.56V68.8H1118.73V130H1109.05V122.96C1107.88 125.147 1106.01 127.013 1103.45 128.56C1100.94 130.053 1098.22 130.8 1095.29 130.8ZM1097.69 123.12C1101.21 123.12 1104.04 121.947 1106.17 119.6C1108.3 117.253 1109.37 113.813 1109.37 109.28V108.64C1109.37 104.107 1108.38 100.693 1106.41 98.4C1104.44 96.0533 1101.66 94.88 1098.09 94.88C1094.52 94.88 1091.74 96.1067 1089.77 98.56C1087.8 100.96 1086.81 104.4 1086.81 108.88V109.52C1086.81 113.947 1087.8 117.333 1089.77 119.68C1091.8 121.973 1094.44 123.12 1097.69 123.12ZM612.416 211.28C615.989 211.28 618.789 210.053 620.816 207.6C622.896 205.093 623.936 201.68 623.936 197.36V196.8C623.936 192.48 622.896 189.093 620.816 186.64C618.789 184.133 615.989 182.88 612.416 182.88C608.789 182.88 605.936 184.107 603.856 186.56C601.829 189.013 600.816 192.4 600.816 196.72V197.36C600.816 201.68 601.829 205.093 603.856 207.6C605.936 210.053 608.789 211.28 612.416 211.28ZM627.776 212.88C623.723 216.827 618.576 218.8 612.336 218.8C606.096 218.8 600.949 216.827 596.896 212.88C592.896 208.933 590.896 203.813 590.896 197.52V196.88C590.896 190.48 592.923 185.28 596.976 181.28C601.029 177.28 606.176 175.28 612.416 175.28C618.603 175.28 623.723 177.253 627.776 181.2C631.829 185.147 633.856 190.293 633.856 196.64V197.28C633.856 203.733 631.829 208.933 627.776 212.88ZM644.482 218V183.44H638.802V176.16H644.482V170.56C644.482 165.973 645.709 162.48 648.162 160.08C650.616 157.627 654.082 156.4 658.562 156.4C660.589 156.4 662.429 156.667 664.082 157.2V164.72C662.749 164.24 661.282 164 659.682 164C656.002 164 654.162 166.053 654.162 170.16V176.16H663.682V183.44H654.162V218H644.482ZM705.489 218.72C701.382 218.72 698.236 217.653 696.049 215.52C693.916 213.387 692.849 210.32 692.849 206.32V183.44H687.249V176.16H692.849V166.96H702.529V176.16H711.729V183.44H702.529V205.44C702.529 209.013 704.129 210.8 707.329 210.8C709.196 210.8 710.769 210.533 712.049 210V217.68C710.182 218.373 707.996 218.72 705.489 218.72ZM720.98 218V156.8H730.66V182.8C731.727 180.613 733.434 178.827 735.78 177.44C738.127 176 740.927 175.28 744.18 175.28C748.607 175.28 752.1 176.64 754.66 179.36C757.22 182.027 758.5 186.133 758.5 191.68V218H748.82V192.56C748.82 189.413 748.154 187.093 746.82 185.6C745.487 184.107 743.38 183.36 740.5 183.36C737.62 183.36 735.247 184.24 733.38 186C731.567 187.707 730.66 190.16 730.66 193.36V218H720.98ZM788.572 211.28C792.146 211.28 794.946 210.053 796.972 207.6C799.052 205.093 800.092 201.68 800.092 197.36V196.8C800.092 192.48 799.052 189.093 796.972 186.64C794.946 184.133 792.146 182.88 788.572 182.88C784.946 182.88 782.092 184.107 780.012 186.56C777.986 189.013 776.972 192.4 776.972 196.72V197.36C776.972 201.68 777.986 205.093 780.012 207.6C782.092 210.053 784.946 211.28 788.572 211.28ZM803.932 212.88C799.879 216.827 794.732 218.8 788.492 218.8C782.252 218.8 777.106 216.827 773.052 212.88C769.052 208.933 767.052 203.813 767.052 197.52V196.88C767.052 190.48 769.079 185.28 773.132 181.28C777.186 177.28 782.332 175.28 788.572 175.28C794.759 175.28 799.879 177.253 803.932 181.2C807.986 185.147 810.012 190.293 810.012 196.64V197.28C810.012 203.733 807.986 208.933 803.932 212.88ZM832.958 218.8C828.585 218.8 825.092 217.493 822.478 214.88C819.865 212.267 818.558 208.293 818.558 202.96V176.16H828.238V201.84C828.238 204.987 828.905 207.307 830.238 208.8C831.572 210.293 833.652 211.04 836.478 211.04C839.252 211.04 841.572 210.16 843.438 208.4C845.305 206.64 846.238 204.187 846.238 201.04V176.16H855.918V218H846.238V211.44C845.118 213.627 843.412 215.413 841.118 216.8C838.878 218.133 836.158 218.8 832.958 218.8ZM885.436 233.36C879.196 233.36 874.423 232.107 871.116 229.6C867.809 227.093 865.863 223.707 865.276 219.44H875.036C875.889 223.813 879.329 226 885.356 226C893.143 226 897.036 222.24 897.036 214.72V208.56C895.809 210.693 893.943 212.533 891.436 214.08C888.983 215.573 886.289 216.32 883.356 216.32C878.023 216.32 873.596 214.48 870.076 210.8C866.556 207.12 864.796 202.32 864.796 196.4V195.84C864.796 189.973 866.583 185.093 870.156 181.2C873.729 177.253 878.209 175.28 883.596 175.28C889.783 175.28 894.263 177.707 897.036 182.56V176.16H906.716V214.88C906.663 220.907 904.743 225.493 900.956 228.64C897.223 231.787 892.049 233.36 885.436 233.36ZM885.756 208.88C889.169 208.88 891.943 207.733 894.076 205.44C896.263 203.147 897.356 200.027 897.356 196.08V195.52C897.356 191.573 896.343 188.48 894.316 186.24C892.289 184 889.543 182.88 886.076 182.88C882.556 182.88 879.783 184.053 877.756 186.4C875.729 188.747 874.716 191.84 874.716 195.68V196.32C874.716 200.107 875.756 203.147 877.836 205.44C879.916 207.733 882.556 208.88 885.756 208.88ZM918.421 218V156.8H928.101V182.8C929.168 180.613 930.874 178.827 933.221 177.44C935.568 176 938.368 175.28 941.621 175.28C946.048 175.28 949.541 176.64 952.101 179.36C954.661 182.027 955.941 186.133 955.941 191.68V218H946.261V192.56C946.261 189.413 945.594 187.093 944.261 185.6C942.928 184.107 940.821 183.36 937.941 183.36C935.061 183.36 932.688 184.24 930.821 186C929.008 187.707 928.101 190.16 928.101 193.36V218H918.421ZM981.533 218.72C977.426 218.72 974.28 217.653 972.093 215.52C969.96 213.387 968.893 210.32 968.893 206.32V183.44H963.293V176.16H968.893V166.96H978.573V176.16H987.773V183.44H978.573V205.44C978.573 209.013 980.173 210.8 983.373 210.8C985.24 210.8 986.813 210.533 988.093 210V217.68C986.226 218.373 984.04 218.72 981.533 218.72Z" fill="white"/>
<path d="M500.329 294V279.7H502.749L507.169 290.84L511.449 279.7H513.849V294H512.109V281.96L507.369 294H506.829L501.929 281.96V294H500.329ZM521.898 292.8C522.938 292.8 523.765 292.44 524.378 291.72C525.005 291 525.318 290.047 525.318 288.86V288.72C525.318 287.507 525.005 286.54 524.378 285.82C523.765 285.1 522.938 284.74 521.898 284.74C520.845 284.74 520.012 285.1 519.398 285.82C518.785 286.54 518.478 287.5 518.478 288.7V288.86C518.478 290.06 518.785 291.02 519.398 291.74C520.012 292.447 520.845 292.8 521.898 292.8ZM521.878 294.18C520.398 294.18 519.172 293.68 518.198 292.68C517.238 291.667 516.758 290.393 516.758 288.86V288.7C516.758 287.14 517.238 285.86 518.198 284.86C519.172 283.86 520.405 283.36 521.898 283.36C523.392 283.36 524.618 283.86 525.578 284.86C526.552 285.847 527.038 287.12 527.038 288.68V288.84C527.038 290.413 526.552 291.7 525.578 292.7C524.605 293.687 523.372 294.18 521.878 294.18ZM533.049 294.18C531.795 294.18 530.809 293.88 530.089 293.28C529.382 292.68 529.002 291.847 528.949 290.78H530.569C530.702 292.127 531.522 292.8 533.029 292.8C534.549 292.8 535.309 292.247 535.309 291.14C535.309 290.62 535.115 290.24 534.729 290C534.355 289.747 533.735 289.54 532.869 289.38C531.509 289.127 530.562 288.78 530.029 288.34C529.495 287.887 529.229 287.207 529.229 286.3C529.229 285.393 529.589 284.68 530.309 284.16C531.042 283.627 531.862 283.36 532.769 283.36C535.035 283.36 536.295 284.367 536.549 286.38H534.949C534.829 285.807 534.595 285.393 534.249 285.14C533.902 284.873 533.402 284.74 532.749 284.74C532.149 284.74 531.669 284.88 531.309 285.16C530.949 285.427 530.769 285.787 530.769 286.24C530.769 286.72 530.935 287.073 531.269 287.3C531.615 287.527 532.262 287.727 533.209 287.9C533.835 288.02 534.335 288.14 534.709 288.26C535.095 288.367 535.469 288.533 535.829 288.76C536.202 288.987 536.469 289.287 536.629 289.66C536.802 290.02 536.889 290.467 536.889 291C536.889 291.973 536.555 292.747 535.889 293.32C535.235 293.893 534.289 294.18 533.049 294.18ZM542.798 294.14C541.878 294.14 541.178 293.893 540.698 293.4C540.218 292.907 539.978 292.233 539.978 291.38V284.94H538.478V283.54H539.978V281.16H541.638V283.54H544.078V284.94H541.638V291.22C541.638 292.233 542.071 292.74 542.938 292.74C543.418 292.74 543.845 292.667 544.218 292.52V293.92C543.805 294.067 543.331 294.14 542.798 294.14ZM556.76 294.18C555.28 294.18 554.054 293.7 553.08 292.74C552.12 291.767 551.64 290.48 551.64 288.88V288.72C551.64 287.147 552.127 285.86 553.1 284.86C554.087 283.86 555.294 283.36 556.72 283.36C557.92 283.36 558.94 283.66 559.78 284.26C560.62 284.847 561.114 285.767 561.26 287.02H559.62C559.38 285.5 558.414 284.74 556.72 284.74C555.747 284.74 554.94 285.107 554.3 285.84C553.674 286.56 553.36 287.52 553.36 288.72V288.88C553.36 290.133 553.667 291.1 554.28 291.78C554.907 292.46 555.74 292.8 556.78 292.8C557.567 292.8 558.24 292.58 558.8 292.14C559.374 291.687 559.7 291.053 559.78 290.24H561.32C561.214 291.387 560.734 292.333 559.88 293.08C559.04 293.813 558 294.18 556.76 294.18ZM566.646 294.18C565.62 294.18 564.78 293.927 564.126 293.42C563.486 292.9 563.166 292.127 563.166 291.1C563.166 289.98 563.66 289.16 564.646 288.64C565.646 288.12 566.9 287.86 568.406 287.86H569.906V287.1C569.906 286.26 569.733 285.66 569.386 285.3C569.04 284.927 568.466 284.74 567.666 284.74C566.226 284.74 565.426 285.367 565.266 286.62H563.606C563.713 285.5 564.153 284.68 564.926 284.16C565.7 283.627 566.64 283.36 567.746 283.36C570.293 283.36 571.566 284.607 571.566 287.1V294H569.906V292.68C569.106 293.68 568.02 294.18 566.646 294.18ZM566.806 292.86C567.713 292.86 568.453 292.64 569.026 292.2C569.613 291.747 569.906 291.127 569.906 290.34V289.04H568.466C566.04 289.04 564.826 289.727 564.826 291.1C564.826 292.273 565.486 292.86 566.806 292.86ZM575.067 294V278.54H576.747V294H575.067ZM584.624 294.18C583.131 294.18 581.911 293.7 580.964 292.74C580.031 291.767 579.564 290.48 579.564 288.88V288.72C579.564 287.147 580.018 285.86 580.924 284.86C581.844 283.86 583.024 283.36 584.464 283.36C585.798 283.36 586.911 283.793 587.804 284.66C588.711 285.513 589.164 286.813 589.164 288.56V289.1H581.284C581.324 290.3 581.624 291.22 582.184 291.86C582.758 292.487 583.578 292.8 584.644 292.8C586.284 292.8 587.211 292.193 587.424 290.98H589.084C588.911 292.007 588.424 292.8 587.624 293.36C586.824 293.907 585.824 294.18 584.624 294.18ZM581.344 287.76H587.464C587.318 285.747 586.318 284.74 584.464 284.74C583.624 284.74 582.931 285.013 582.384 285.56C581.838 286.093 581.491 286.827 581.344 287.76ZM591.912 294V283.54H593.572V285.2C593.825 284.667 594.245 284.227 594.832 283.88C595.418 283.533 596.118 283.36 596.932 283.36C598.078 283.36 598.978 283.7 599.632 284.38C600.285 285.06 600.612 286.127 600.612 287.58V294H598.952V287.46C598.952 286.54 598.752 285.867 598.352 285.44C597.952 285.013 597.332 284.8 596.492 284.8C595.678 284.8 594.985 285.053 594.412 285.56C593.852 286.067 593.572 286.767 593.572 287.66V294H591.912ZM608.005 294.18C606.605 294.18 605.465 293.713 604.585 292.78C603.718 291.847 603.285 290.58 603.285 288.98V288.82C603.285 287.22 603.738 285.913 604.645 284.9C605.551 283.873 606.725 283.36 608.165 283.36C609.711 283.36 610.851 283.98 611.585 285.22V278.54H613.245V294H611.585V292.2C611.265 292.733 610.771 293.2 610.105 293.6C609.438 293.987 608.738 294.18 608.005 294.18ZM608.185 292.8C609.211 292.8 610.045 292.467 610.685 291.8C611.325 291.12 611.645 290.133 611.645 288.84V288.68C611.645 287.373 611.351 286.393 610.765 285.74C610.191 285.073 609.378 284.74 608.325 284.74C607.285 284.74 606.471 285.093 605.885 285.8C605.298 286.493 605.005 287.473 605.005 288.74V288.9C605.005 290.167 605.298 291.133 605.885 291.8C606.485 292.467 607.251 292.8 608.185 292.8ZM619.424 294.18C618.397 294.18 617.557 293.927 616.904 293.42C616.264 292.9 615.944 292.127 615.944 291.1C615.944 289.98 616.437 289.16 617.424 288.64C618.424 288.12 619.677 287.86 621.184 287.86H622.684V287.1C622.684 286.26 622.51 285.66 622.164 285.3C621.817 284.927 621.244 284.74 620.444 284.74C619.004 284.74 618.204 285.367 618.044 286.62H616.384C616.49 285.5 616.93 284.68 617.704 284.16C618.477 283.627 619.417 283.36 620.524 283.36C623.07 283.36 624.344 284.607 624.344 287.1V294H622.684V292.68C621.884 293.68 620.797 294.18 619.424 294.18ZM619.584 292.86C620.49 292.86 621.23 292.64 621.804 292.2C622.39 291.747 622.684 291.127 622.684 290.34V289.04H621.244C618.817 289.04 617.604 289.727 617.604 291.1C617.604 292.273 618.264 292.86 619.584 292.86ZM627.805 294V283.54H629.465V285.42C629.825 284.767 630.265 284.267 630.785 283.92C631.318 283.573 632.025 283.387 632.905 283.36V284.92C631.758 284.973 630.898 285.24 630.325 285.72C629.751 286.2 629.465 287.047 629.465 288.26V294H627.805ZM638.666 294.18C637.413 294.18 636.426 293.88 635.706 293.28C635 292.68 634.62 291.847 634.566 290.78H636.186C636.32 292.127 637.14 292.8 638.646 292.8C640.166 292.8 640.926 292.247 640.926 291.14C640.926 290.62 640.733 290.24 640.346 290C639.973 289.747 639.353 289.54 638.486 289.38C637.126 289.127 636.18 288.78 635.646 288.34C635.113 287.887 634.846 287.207 634.846 286.3C634.846 285.393 635.206 284.68 635.926 284.16C636.66 283.627 637.48 283.36 638.386 283.36C640.653 283.36 641.913 284.367 642.166 286.38H640.566C640.446 285.807 640.213 285.393 639.866 285.14C639.52 284.873 639.02 284.74 638.366 284.74C637.766 284.74 637.286 284.88 636.926 285.16C636.566 285.427 636.386 285.787 636.386 286.24C636.386 286.72 636.553 287.073 636.886 287.3C637.233 287.527 637.88 287.727 638.826 287.9C639.453 288.02 639.953 288.14 640.326 288.26C640.713 288.367 641.086 288.533 641.446 288.76C641.82 288.987 642.086 289.287 642.246 289.66C642.42 290.02 642.506 290.467 642.506 291C642.506 291.973 642.173 292.747 641.506 293.32C640.853 293.893 639.906 294.18 638.666 294.18ZM653.349 294.18C652.322 294.18 651.482 293.927 650.829 293.42C650.189 292.9 649.869 292.127 649.869 291.1C649.869 289.98 650.362 289.16 651.349 288.64C652.349 288.12 653.602 287.86 655.109 287.86H656.609V287.1C656.609 286.26 656.435 285.66 656.089 285.3C655.742 284.927 655.169 284.74 654.369 284.74C652.929 284.74 652.129 285.367 651.969 286.62H650.309C650.415 285.5 650.855 284.68 651.629 284.16C652.402 283.627 653.342 283.36 654.449 283.36C656.995 283.36 658.269 284.607 658.269 287.1V294H656.609V292.68C655.809 293.68 654.722 294.18 653.349 294.18ZM653.509 292.86C654.415 292.86 655.155 292.64 655.729 292.2C656.315 291.747 656.609 291.127 656.609 290.34V289.04H655.169C652.742 289.04 651.529 289.727 651.529 291.1C651.529 292.273 652.189 292.86 653.509 292.86ZM661.73 294V283.54H663.39V285.42C663.75 284.767 664.19 284.267 664.71 283.92C665.243 283.573 665.95 283.387 666.83 283.36V284.92C665.683 284.973 664.823 285.24 664.25 285.72C663.676 286.2 663.39 287.047 663.39 288.26V294H661.73ZM673.436 294.18C671.943 294.18 670.723 293.7 669.776 292.74C668.843 291.767 668.376 290.48 668.376 288.88V288.72C668.376 287.147 668.829 285.86 669.736 284.86C670.656 283.86 671.836 283.36 673.276 283.36C674.609 283.36 675.723 283.793 676.616 284.66C677.523 285.513 677.976 286.813 677.976 288.56V289.1H670.096C670.136 290.3 670.436 291.22 670.996 291.86C671.569 292.487 672.389 292.8 673.456 292.8C675.096 292.8 676.023 292.193 676.236 290.98H677.896C677.723 292.007 677.236 292.8 676.436 293.36C675.636 293.907 674.636 294.18 673.436 294.18ZM670.156 287.76H676.276C676.129 285.747 675.129 284.74 673.276 284.74C672.436 284.74 671.743 285.013 671.196 285.56C670.649 286.093 670.303 286.827 670.156 287.76ZM690.156 294.18C688.756 294.18 687.616 293.713 686.736 292.78C685.87 291.847 685.436 290.58 685.436 288.98V288.82C685.436 287.22 685.89 285.913 686.796 284.9C687.703 283.873 688.876 283.36 690.316 283.36C691.863 283.36 693.003 283.98 693.736 285.22V278.54H695.396V294H693.736V292.2C693.416 292.733 692.923 293.2 692.256 293.6C691.59 293.987 690.89 294.18 690.156 294.18ZM690.336 292.8C691.363 292.8 692.196 292.467 692.836 291.8C693.476 291.12 693.796 290.133 693.796 288.84V288.68C693.796 287.373 693.503 286.393 692.916 285.74C692.343 285.073 691.53 284.74 690.476 284.74C689.436 284.74 688.623 285.093 688.036 285.8C687.45 286.493 687.156 287.473 687.156 288.74V288.9C687.156 290.167 687.45 291.133 688.036 291.8C688.636 292.467 689.403 292.8 690.336 292.8ZM703.235 294.18C701.742 294.18 700.522 293.7 699.575 292.74C698.642 291.767 698.175 290.48 698.175 288.88V288.72C698.175 287.147 698.629 285.86 699.535 284.86C700.455 283.86 701.635 283.36 703.075 283.36C704.409 283.36 705.522 283.793 706.415 284.66C707.322 285.513 707.775 286.813 707.775 288.56V289.1H699.895C699.935 290.3 700.235 291.22 700.795 291.86C701.369 292.487 702.189 292.8 703.255 292.8C704.895 292.8 705.822 292.193 706.035 290.98H707.695C707.522 292.007 707.035 292.8 706.235 293.36C705.435 293.907 704.435 294.18 703.235 294.18ZM699.955 287.76H706.075C705.929 285.747 704.929 284.74 703.075 284.74C702.235 284.74 701.542 285.013 700.995 285.56C700.449 286.093 700.102 286.827 699.955 287.76ZM713.86 294.18C712.607 294.18 711.62 293.88 710.9 293.28C710.194 292.68 709.814 291.847 709.76 290.78H711.38C711.514 292.127 712.334 292.8 713.84 292.8C715.36 292.8 716.12 292.247 716.12 291.14C716.12 290.62 715.927 290.24 715.54 290C715.167 289.747 714.547 289.54 713.68 289.38C712.32 289.127 711.374 288.78 710.84 288.34C710.307 287.887 710.04 287.207 710.04 286.3C710.04 285.393 710.4 284.68 711.12 284.16C711.854 283.627 712.674 283.36 713.58 283.36C715.847 283.36 717.107 284.367 717.36 286.38H715.76C715.64 285.807 715.407 285.393 715.06 285.14C714.714 284.873 714.214 284.74 713.56 284.74C712.96 284.74 712.48 284.88 712.12 285.16C711.76 285.427 711.58 285.787 711.58 286.24C711.58 286.72 711.747 287.073 712.08 287.3C712.427 287.527 713.074 287.727 714.02 287.9C714.647 288.02 715.147 288.14 715.52 288.26C715.907 288.367 716.28 288.533 716.64 288.76C717.014 288.987 717.28 289.287 717.44 289.66C717.614 290.02 717.7 290.467 717.7 291C717.7 291.973 717.367 292.747 716.7 293.32C716.047 293.893 715.1 294.18 713.86 294.18ZM720.47 294V283.54H722.13V294H720.47ZM722.03 281.04C721.816 281.253 721.563 281.36 721.27 281.36C720.976 281.36 720.716 281.253 720.49 281.04C720.276 280.827 720.17 280.567 720.17 280.26C720.17 279.953 720.276 279.693 720.49 279.48C720.716 279.267 720.976 279.16 721.27 279.16C721.563 279.16 721.816 279.267 722.03 279.48C722.256 279.693 722.37 279.953 722.37 280.26C722.37 280.567 722.256 280.827 722.03 281.04ZM729.907 297.82C728.454 297.82 727.334 297.52 726.547 296.92C725.774 296.333 725.314 295.56 725.167 294.6H726.867C727.107 295.813 728.114 296.42 729.887 296.42C730.954 296.42 731.781 296.153 732.367 295.62C732.954 295.1 733.247 294.293 733.247 293.2V291.68C732.927 292.227 732.441 292.693 731.787 293.08C731.134 293.467 730.441 293.66 729.707 293.66C728.334 293.66 727.194 293.193 726.287 292.26C725.394 291.327 724.947 290.14 724.947 288.7V288.56C724.947 287.107 725.407 285.88 726.327 284.88C727.247 283.867 728.414 283.36 729.827 283.36C731.374 283.36 732.514 283.98 733.247 285.22V283.54H734.907V293.3C734.894 294.78 734.434 295.9 733.527 296.66C732.621 297.433 731.414 297.82 729.907 297.82ZM729.887 292.28C730.887 292.28 731.707 291.953 732.347 291.3C732.987 290.633 733.307 289.727 733.307 288.58V288.44C733.307 287.28 733.007 286.373 732.407 285.72C731.821 285.067 731.014 284.74 729.987 284.74C728.961 284.74 728.147 285.087 727.547 285.78C726.961 286.46 726.667 287.36 726.667 288.48V288.64C726.667 289.747 726.974 290.633 727.587 291.3C728.214 291.953 728.981 292.28 729.887 292.28ZM738.466 294V283.54H740.126V285.2C740.38 284.667 740.8 284.227 741.386 283.88C741.973 283.533 742.673 283.36 743.486 283.36C744.633 283.36 745.533 283.7 746.186 284.38C746.84 285.06 747.166 286.127 747.166 287.58V294H745.506V287.46C745.506 286.54 745.306 285.867 744.906 285.44C744.506 285.013 743.886 284.8 743.046 284.8C742.233 284.8 741.54 285.053 740.966 285.56C740.406 286.067 740.126 286.767 740.126 287.66V294H738.466ZM754.899 294.18C753.406 294.18 752.186 293.7 751.239 292.74C750.306 291.767 749.839 290.48 749.839 288.88V288.72C749.839 287.147 750.293 285.86 751.199 284.86C752.119 283.86 753.299 283.36 754.739 283.36C756.073 283.36 757.186 283.793 758.079 284.66C758.986 285.513 759.439 286.813 759.439 288.56V289.1H751.559C751.599 290.3 751.899 291.22 752.459 291.86C753.033 292.487 753.853 292.8 754.919 292.8C756.559 292.8 757.486 292.193 757.699 290.98H759.359C759.186 292.007 758.699 292.8 757.899 293.36C757.099 293.907 756.099 294.18 754.899 294.18ZM751.619 287.76H757.739C757.593 285.747 756.593 284.74 754.739 284.74C753.899 284.74 753.206 285.013 752.659 285.56C752.113 286.093 751.766 286.827 751.619 287.76ZM766.127 294.18C764.727 294.18 763.587 293.713 762.707 292.78C761.84 291.847 761.407 290.58 761.407 288.98V288.82C761.407 287.22 761.86 285.913 762.767 284.9C763.673 283.873 764.847 283.36 766.287 283.36C767.833 283.36 768.973 283.98 769.707 285.22V278.54H771.367V294H769.707V292.2C769.387 292.733 768.893 293.2 768.227 293.6C767.56 293.987 766.86 294.18 766.127 294.18ZM766.307 292.8C767.333 292.8 768.167 292.467 768.807 291.8C769.447 291.12 769.767 290.133 769.767 288.84V288.68C769.767 287.373 769.473 286.393 768.887 285.74C768.313 285.073 767.5 284.74 766.447 284.74C765.407 284.74 764.593 285.093 764.007 285.8C763.42 286.493 763.127 287.473 763.127 288.74V288.9C763.127 290.167 763.42 291.133 764.007 291.8C764.607 292.467 765.373 292.8 766.307 292.8ZM780.779 294V284.94H779.279V283.54H780.779V281.84C780.779 280.76 781.039 279.933 781.559 279.36C782.092 278.773 782.872 278.48 783.899 278.48C784.325 278.48 784.739 278.547 785.139 278.68V280.08C784.765 279.933 784.372 279.86 783.959 279.86C782.945 279.86 782.439 280.46 782.439 281.66V283.54H784.999V284.94H782.439V294H780.779ZM791.385 292.8C792.425 292.8 793.252 292.44 793.865 291.72C794.492 291 794.805 290.047 794.805 288.86V288.72C794.805 287.507 794.492 286.54 793.865 285.82C793.252 285.1 792.425 284.74 791.385 284.74C790.332 284.74 789.498 285.1 788.885 285.82C788.272 286.54 787.965 287.5 787.965 288.7V288.86C787.965 290.06 788.272 291.02 788.885 291.74C789.498 292.447 790.332 292.8 791.385 292.8ZM791.365 294.18C789.885 294.18 788.658 293.68 787.685 292.68C786.725 291.667 786.245 290.393 786.245 288.86V288.7C786.245 287.14 786.725 285.86 787.685 284.86C788.658 283.86 789.892 283.36 791.385 283.36C792.878 283.36 794.105 283.86 795.065 284.86C796.038 285.847 796.525 287.12 796.525 288.68V288.84C796.525 290.413 796.038 291.7 795.065 292.7C794.092 293.687 792.858 294.18 791.365 294.18ZM799.295 294V283.54H800.955V285.42C801.315 284.767 801.755 284.267 802.275 283.92C802.809 283.573 803.515 283.387 804.395 283.36V284.92C803.249 284.973 802.389 285.24 801.815 285.72C801.242 286.2 800.955 287.047 800.955 288.26V294H799.295ZM815.688 294.14C814.768 294.14 814.068 293.893 813.588 293.4C813.108 292.907 812.868 292.233 812.868 291.38V284.94H811.368V283.54H812.868V281.16H814.528V283.54H816.968V284.94H814.528V291.22C814.528 292.233 814.961 292.74 815.828 292.74C816.308 292.74 816.734 292.667 817.108 292.52V293.92C816.694 294.067 816.221 294.14 815.688 294.14ZM824.097 294.18C822.604 294.18 821.384 293.7 820.437 292.74C819.504 291.767 819.037 290.48 819.037 288.88V288.72C819.037 287.147 819.49 285.86 820.397 284.86C821.317 283.86 822.497 283.36 823.937 283.36C825.27 283.36 826.384 283.793 827.277 284.66C828.184 285.513 828.637 286.813 828.637 288.56V289.1H820.757C820.797 290.3 821.097 291.22 821.657 291.86C822.23 292.487 823.05 292.8 824.117 292.8C825.757 292.8 826.684 292.193 826.897 290.98H828.557C828.384 292.007 827.897 292.8 827.097 293.36C826.297 293.907 825.297 294.18 824.097 294.18ZM820.817 287.76H826.937C826.79 285.747 825.79 284.74 823.937 284.74C823.097 284.74 822.404 285.013 821.857 285.56C821.31 286.093 820.964 286.827 820.817 287.76ZM834.102 294.18C833.075 294.18 832.235 293.927 831.582 293.42C830.942 292.9 830.622 292.127 830.622 291.1C830.622 289.98 831.115 289.16 832.102 288.64C833.102 288.12 834.355 287.86 835.862 287.86H837.362V287.1C837.362 286.26 837.189 285.66 836.842 285.3C836.495 284.927 835.922 284.74 835.122 284.74C833.682 284.74 832.882 285.367 832.722 286.62H831.062C831.169 285.5 831.609 284.68 832.382 284.16C833.155 283.627 834.095 283.36 835.202 283.36C837.749 283.36 839.022 284.607 839.022 287.1V294H837.362V292.68C836.562 293.68 835.475 294.18 834.102 294.18ZM834.262 292.86C835.169 292.86 835.909 292.64 836.482 292.2C837.069 291.747 837.362 291.127 837.362 290.34V289.04H835.922C833.495 289.04 832.282 289.727 832.282 291.1C832.282 292.273 832.942 292.86 834.262 292.86ZM842.483 294V283.54H844.143V285.14C844.396 284.62 844.796 284.193 845.343 283.86C845.903 283.527 846.543 283.36 847.263 283.36C848.796 283.36 849.816 284.013 850.323 285.32C850.656 284.68 851.156 284.193 851.823 283.86C852.503 283.527 853.196 283.36 853.903 283.36C854.929 283.36 855.769 283.7 856.423 284.38C857.089 285.047 857.423 286.093 857.423 287.52V294H855.763V287.4C855.763 285.667 855.023 284.8 853.543 284.8C852.796 284.8 852.149 285.047 851.603 285.54C851.056 286.033 850.783 286.72 850.783 287.6V294H849.123V287.4C849.123 285.667 848.383 284.8 846.903 284.8C846.156 284.8 845.509 285.047 844.963 285.54C844.416 286.033 844.143 286.72 844.143 287.6V294H842.483ZM864.126 294.18C862.873 294.18 861.886 293.88 861.166 293.28C860.459 292.68 860.079 291.847 860.026 290.78H861.646C861.779 292.127 862.599 292.8 864.106 292.8C865.626 292.8 866.386 292.247 866.386 291.14C866.386 290.62 866.193 290.24 865.806 290C865.433 289.747 864.813 289.54 863.946 289.38C862.586 289.127 861.639 288.78 861.106 288.34C860.573 287.887 860.306 287.207 860.306 286.3C860.306 285.393 860.666 284.68 861.386 284.16C862.119 283.627 862.939 283.36 863.846 283.36C866.113 283.36 867.373 284.367 867.626 286.38H866.026C865.906 285.807 865.673 285.393 865.326 285.14C864.979 284.873 864.479 284.74 863.826 284.74C863.226 284.74 862.746 284.88 862.386 285.16C862.026 285.427 861.846 285.787 861.846 286.24C861.846 286.72 862.013 287.073 862.346 287.3C862.693 287.527 863.339 287.727 864.286 287.9C864.913 288.02 865.413 288.14 865.786 288.26C866.173 288.367 866.546 288.533 866.906 288.76C867.279 288.987 867.546 289.287 867.706 289.66C867.879 290.02 867.966 290.467 867.966 291C867.966 291.973 867.633 292.747 866.966 293.32C866.313 293.893 865.366 294.18 864.126 294.18ZM872.735 293.74C872.482 293.98 872.182 294.1 871.835 294.1C871.489 294.1 871.189 293.98 870.935 293.74C870.682 293.487 870.555 293.18 870.555 292.82C870.555 292.46 870.682 292.16 870.935 291.92C871.189 291.667 871.489 291.54 871.835 291.54C872.182 291.54 872.482 291.667 872.735 291.92C872.989 292.16 873.115 292.46 873.115 292.82C873.115 293.18 872.989 293.487 872.735 293.74ZM886.773 294.18C884.999 294.18 883.679 293.767 882.813 292.94C881.959 292.1 881.459 291 881.313 289.64H882.993C883.059 290.107 883.153 290.513 883.273 290.86C883.406 291.207 883.606 291.533 883.873 291.84C884.139 292.147 884.513 292.38 884.993 292.54C885.486 292.7 886.079 292.78 886.773 292.78C887.706 292.78 888.479 292.533 889.093 292.04C889.719 291.533 890.033 290.88 890.033 290.08C890.033 289.253 889.793 288.647 889.313 288.26C888.833 287.86 887.919 287.553 886.573 287.34C884.959 287.1 883.759 286.687 882.973 286.1C882.186 285.5 881.793 284.6 881.793 283.4C881.793 282.293 882.226 281.373 883.093 280.64C883.959 279.893 885.059 279.52 886.393 279.52C887.833 279.52 888.979 279.86 889.833 280.54C890.686 281.22 891.179 282.193 891.313 283.46H889.753C889.579 282.567 889.226 281.92 888.693 281.52C888.159 281.12 887.393 280.92 886.393 280.92C885.446 280.92 884.713 281.133 884.193 281.56C883.673 281.987 883.413 282.547 883.413 283.24C883.413 283.987 883.639 284.547 884.093 284.92C884.546 285.293 885.466 285.587 886.853 285.8C888.533 286.067 889.759 286.507 890.533 287.12C891.319 287.72 891.713 288.667 891.713 289.96C891.713 291.16 891.239 292.167 890.293 292.98C889.359 293.78 888.186 294.18 886.773 294.18ZM894.812 294V278.54H896.492V294H894.812ZM902.709 294.18C901.682 294.18 900.842 293.927 900.189 293.42C899.549 292.9 899.229 292.127 899.229 291.1C899.229 289.98 899.722 289.16 900.709 288.64C901.709 288.12 902.962 287.86 904.469 287.86H905.969V287.1C905.969 286.26 905.796 285.66 905.449 285.3C905.102 284.927 904.529 284.74 903.729 284.74C902.289 284.74 901.489 285.367 901.329 286.62H899.669C899.776 285.5 900.216 284.68 900.989 284.16C901.762 283.627 902.702 283.36 903.809 283.36C906.356 283.36 907.629 284.607 907.629 287.1V294H905.969V292.68C905.169 293.68 904.082 294.18 902.709 294.18ZM902.869 292.86C903.776 292.86 904.516 292.64 905.089 292.2C905.676 291.747 905.969 291.127 905.969 290.34V289.04H904.529C902.102 289.04 900.889 289.727 900.889 291.1C900.889 292.273 901.549 292.86 902.869 292.86ZM914.27 294.14C913.35 294.14 912.65 293.893 912.17 293.4C911.69 292.907 911.45 292.233 911.45 291.38V284.94H909.95V283.54H911.45V281.16H913.11V283.54H915.55V284.94H913.11V291.22C913.11 292.233 913.543 292.74 914.41 292.74C914.89 292.74 915.316 292.667 915.69 292.52V293.92C915.276 294.067 914.803 294.14 914.27 294.14ZM922.679 294.18C921.186 294.18 919.966 293.7 919.019 292.74C918.086 291.767 917.619 290.48 917.619 288.88V288.72C917.619 287.147 918.072 285.86 918.979 284.86C919.899 283.86 921.079 283.36 922.519 283.36C923.852 283.36 924.966 283.793 925.859 284.66C926.766 285.513 927.219 286.813 927.219 288.56V289.1H919.339C919.379 290.3 919.679 291.22 920.239 291.86C920.812 292.487 921.632 292.8 922.699 292.8C924.339 292.8 925.266 292.193 925.479 290.98H927.139C926.966 292.007 926.479 292.8 925.679 293.36C924.879 293.907 923.879 294.18 922.679 294.18ZM919.399 287.76H925.519C925.372 285.747 924.372 284.74 922.519 284.74C921.679 284.74 920.986 285.013 920.439 285.56C919.892 286.093 919.546 286.827 919.399 287.76ZM935.499 294V283.54H937.159V294H935.499ZM937.059 281.04C936.846 281.253 936.593 281.36 936.299 281.36C936.006 281.36 935.746 281.253 935.519 281.04C935.306 280.827 935.199 280.567 935.199 280.26C935.199 279.953 935.306 279.693 935.519 279.48C935.746 279.267 936.006 279.16 936.299 279.16C936.593 279.16 936.846 279.267 937.059 279.48C937.286 279.693 937.399 279.953 937.399 280.26C937.399 280.567 937.286 280.827 937.059 281.04ZM943.997 294.18C942.744 294.18 941.757 293.88 941.037 293.28C940.33 292.68 939.95 291.847 939.897 290.78H941.517C941.65 292.127 942.47 292.8 943.977 292.8C945.497 292.8 946.257 292.247 946.257 291.14C946.257 290.62 946.064 290.24 945.677 290C945.304 289.747 944.684 289.54 943.817 289.38C942.457 289.127 941.51 288.78 940.977 288.34C940.444 287.887 940.177 287.207 940.177 286.3C940.177 285.393 940.537 284.68 941.257 284.16C941.99 283.627 942.81 283.36 943.717 283.36C945.984 283.36 947.244 284.367 947.497 286.38H945.897C945.777 285.807 945.544 285.393 945.197 285.14C944.85 284.873 944.35 284.74 943.697 284.74C943.097 284.74 942.617 284.88 942.257 285.16C941.897 285.427 941.717 285.787 941.717 286.24C941.717 286.72 941.884 287.073 942.217 287.3C942.564 287.527 943.21 287.727 944.157 287.9C944.784 288.02 945.284 288.14 945.657 288.26C946.044 288.367 946.417 288.533 946.777 288.76C947.15 288.987 947.417 289.287 947.577 289.66C947.75 290.02 947.837 290.467 947.837 291C947.837 291.973 947.504 292.747 946.837 293.32C946.184 293.893 945.237 294.18 943.997 294.18ZM959.999 294.18C958.599 294.18 957.459 293.713 956.579 292.78C955.713 291.847 955.279 290.58 955.279 288.98V288.82C955.279 287.22 955.733 285.913 956.639 284.9C957.546 283.873 958.719 283.36 960.159 283.36C961.706 283.36 962.846 283.98 963.579 285.22V278.54H965.239V294H963.579V292.2C963.259 292.733 962.766 293.2 962.099 293.6C961.433 293.987 960.733 294.18 959.999 294.18ZM960.179 292.8C961.206 292.8 962.039 292.467 962.679 291.8C963.319 291.12 963.639 290.133 963.639 288.84V288.68C963.639 287.373 963.346 286.393 962.759 285.74C962.186 285.073 961.373 284.74 960.319 284.74C959.279 284.74 958.466 285.093 957.879 285.8C957.293 286.493 956.999 287.473 956.999 288.74V288.9C956.999 290.167 957.293 291.133 957.879 291.8C958.479 292.467 959.246 292.8 960.179 292.8ZM973.078 294.18C971.585 294.18 970.365 293.7 969.418 292.74C968.485 291.767 968.018 290.48 968.018 288.88V288.72C968.018 287.147 968.472 285.86 969.378 284.86C970.298 283.86 971.478 283.36 972.918 283.36C974.252 283.36 975.365 283.793 976.258 284.66C977.165 285.513 977.618 286.813 977.618 288.56V289.1H969.738C969.778 290.3 970.078 291.22 970.638 291.86C971.212 292.487 972.032 292.8 973.098 292.8C974.738 292.8 975.665 292.193 975.878 290.98H977.538C977.365 292.007 976.878 292.8 976.078 293.36C975.278 293.907 974.278 294.18 973.078 294.18ZM969.798 287.76H975.918C975.772 285.747 974.772 284.74 972.918 284.74C972.078 284.74 971.385 285.013 970.838 285.56C970.292 286.093 969.945 286.827 969.798 287.76ZM983.703 294.18C982.45 294.18 981.463 293.88 980.743 293.28C980.037 292.68 979.657 291.847 979.603 290.78H981.223C981.357 292.127 982.177 292.8 983.683 292.8C985.203 292.8 985.963 292.247 985.963 291.14C985.963 290.62 985.77 290.24 985.383 290C985.01 289.747 984.39 289.54 983.523 289.38C982.163 289.127 981.217 288.78 980.683 288.34C980.15 287.887 979.883 287.207 979.883 286.3C979.883 285.393 980.243 284.68 980.963 284.16C981.697 283.627 982.517 283.36 983.423 283.36C985.69 283.36 986.95 284.367 987.203 286.38H985.603C985.483 285.807 985.25 285.393 984.903 285.14C984.557 284.873 984.057 284.74 983.403 284.74C982.803 284.74 982.323 284.88 981.963 285.16C981.603 285.427 981.423 285.787 981.423 286.24C981.423 286.72 981.59 287.073 981.923 287.3C982.27 287.527 982.917 287.727 983.863 287.9C984.49 288.02 984.99 288.14 985.363 288.26C985.75 288.367 986.123 288.533 986.483 288.76C986.857 288.987 987.123 289.287 987.283 289.66C987.457 290.02 987.543 290.467 987.543 291C987.543 291.973 987.21 292.747 986.543 293.32C985.89 293.893 984.943 294.18 983.703 294.18ZM990.313 294V283.54H991.973V294H990.313ZM991.873 281.04C991.659 281.253 991.406 281.36 991.113 281.36C990.819 281.36 990.559 281.253 990.333 281.04C990.119 280.827 990.013 280.567 990.013 280.26C990.013 279.953 990.119 279.693 990.333 279.48C990.559 279.267 990.819 279.16 991.113 279.16C991.406 279.16 991.659 279.267 991.873 279.48C992.099 279.693 992.213 279.953 992.213 280.26C992.213 280.567 992.099 280.827 991.873 281.04ZM999.75 297.82C998.297 297.82 997.177 297.52 996.39 296.92C995.617 296.333 995.157 295.56 995.01 294.6H996.71C996.95 295.813 997.957 296.42 999.73 296.42C1000.8 296.42 1001.62 296.153 1002.21 295.62C1002.8 295.1 1003.09 294.293 1003.09 293.2V291.68C1002.77 292.227 1002.28 292.693 1001.63 293.08C1000.98 293.467 1000.28 293.66 999.55 293.66C998.177 293.66 997.037 293.193 996.13 292.26C995.237 291.327 994.79 290.14 994.79 288.7V288.56C994.79 287.107 995.25 285.88 996.17 284.88C997.09 283.867 998.257 283.36 999.67 283.36C1001.22 283.36 1002.36 283.98 1003.09 285.22V283.54H1004.75V293.3C1004.74 294.78 1004.28 295.9 1003.37 296.66C1002.46 297.433 1001.26 297.82 999.75 297.82ZM999.73 292.28C1000.73 292.28 1001.55 291.953 1002.19 291.3C1002.83 290.633 1003.15 289.727 1003.15 288.58V288.44C1003.15 287.28 1002.85 286.373 1002.25 285.72C1001.66 285.067 1000.86 284.74 999.83 284.74C998.804 284.74 997.99 285.087 997.39 285.78C996.804 286.46 996.51 287.36 996.51 288.48V288.64C996.51 289.747 996.817 290.633 997.43 291.3C998.057 291.953 998.824 292.28 999.73 292.28ZM1008.31 294V283.54H1009.97V285.2C1010.22 284.667 1010.64 284.227 1011.23 283.88C1011.82 283.533 1012.52 283.36 1013.33 283.36C1014.48 283.36 1015.38 283.7 1016.03 284.38C1016.68 285.06 1017.01 286.127 1017.01 287.58V294H1015.35V287.46C1015.35 286.54 1015.15 285.867 1014.75 285.44C1014.35 285.013 1013.73 284.8 1012.89 284.8C1012.08 284.8 1011.38 285.053 1010.81 285.56C1010.25 286.067 1009.97 286.767 1009.97 287.66V294H1008.31ZM1024.74 294.18C1023.25 294.18 1022.03 293.7 1021.08 292.74C1020.15 291.767 1019.68 290.48 1019.68 288.88V288.72C1019.68 287.147 1020.14 285.86 1021.04 284.86C1021.96 283.86 1023.14 283.36 1024.58 283.36C1025.92 283.36 1027.03 283.793 1027.92 284.66C1028.83 285.513 1029.28 286.813 1029.28 288.56V289.1H1021.4C1021.44 290.3 1021.74 291.22 1022.3 291.86C1022.88 292.487 1023.7 292.8 1024.76 292.8C1026.4 292.8 1027.33 292.193 1027.54 290.98H1029.2C1029.03 292.007 1028.54 292.8 1027.74 293.36C1026.94 293.907 1025.94 294.18 1024.74 294.18ZM1021.46 287.76H1027.58C1027.44 285.747 1026.44 284.74 1024.58 284.74C1023.74 284.74 1023.05 285.013 1022.5 285.56C1021.96 286.093 1021.61 286.827 1021.46 287.76ZM1035.97 294.18C1034.57 294.18 1033.43 293.713 1032.55 292.78C1031.68 291.847 1031.25 290.58 1031.25 288.98V288.82C1031.25 287.22 1031.7 285.913 1032.61 284.9C1033.52 283.873 1034.69 283.36 1036.13 283.36C1037.68 283.36 1038.82 283.98 1039.55 285.22V278.54H1041.21V294H1039.55V292.2C1039.23 292.733 1038.74 293.2 1038.07 293.6C1037.4 293.987 1036.7 294.18 1035.97 294.18ZM1036.15 292.8C1037.18 292.8 1038.01 292.467 1038.65 291.8C1039.29 291.12 1039.61 290.133 1039.61 288.84V288.68C1039.61 287.373 1039.32 286.393 1038.73 285.74C1038.16 285.073 1037.34 284.74 1036.29 284.74C1035.25 284.74 1034.44 285.093 1033.85 285.8C1033.26 286.493 1032.97 287.473 1032.97 288.74V288.9C1032.97 290.167 1033.26 291.133 1033.85 291.8C1034.45 292.467 1035.22 292.8 1036.15 292.8ZM1050.62 294V284.94H1049.12V283.54H1050.62V281.84C1050.62 280.76 1050.88 279.933 1051.4 279.36C1051.93 278.773 1052.71 278.48 1053.74 278.48C1054.17 278.48 1054.58 278.547 1054.98 278.68V280.08C1054.61 279.933 1054.21 279.86 1053.8 279.86C1052.79 279.86 1052.28 280.46 1052.28 281.66V283.54H1054.84V284.94H1052.28V294H1050.62ZM1061.23 292.8C1062.27 292.8 1063.09 292.44 1063.71 291.72C1064.33 291 1064.65 290.047 1064.65 288.86V288.72C1064.65 287.507 1064.33 286.54 1063.71 285.82C1063.09 285.1 1062.27 284.74 1061.23 284.74C1060.17 284.74 1059.34 285.1 1058.73 285.82C1058.11 286.54 1057.81 287.5 1057.81 288.7V288.86C1057.81 290.06 1058.11 291.02 1058.73 291.74C1059.34 292.447 1060.17 292.8 1061.23 292.8ZM1061.21 294.18C1059.73 294.18 1058.5 293.68 1057.53 292.68C1056.57 291.667 1056.09 290.393 1056.09 288.86V288.7C1056.09 287.14 1056.57 285.86 1057.53 284.86C1058.5 283.86 1059.73 283.36 1061.23 283.36C1062.72 283.36 1063.95 283.86 1064.91 284.86C1065.88 285.847 1066.37 287.12 1066.37 288.68V288.84C1066.37 290.413 1065.88 291.7 1064.91 292.7C1063.93 293.687 1062.7 294.18 1061.21 294.18ZM1069.14 294V283.54H1070.8V285.42C1071.16 284.767 1071.6 284.267 1072.12 283.92C1072.65 283.573 1073.36 283.387 1074.24 283.36V284.92C1073.09 284.973 1072.23 285.24 1071.66 285.72C1071.08 286.2 1070.8 287.047 1070.8 288.26V294H1069.14ZM515.657 324V314.94H514.157V313.54H515.657V311.84C515.657 310.76 515.917 309.933 516.437 309.36C516.97 308.773 517.75 308.48 518.777 308.48C519.203 308.48 519.617 308.547 520.017 308.68V310.08C519.643 309.933 519.25 309.86 518.837 309.86C517.823 309.86 517.317 310.46 517.317 311.66V313.54H519.877V314.94H517.317V324H515.657ZM522.411 324V313.54H524.071V315.42C524.431 314.767 524.871 314.267 525.391 313.92C525.924 313.573 526.631 313.387 527.511 313.36V314.92C526.364 314.973 525.504 315.24 524.931 315.72C524.358 316.2 524.071 317.047 524.071 318.26V324H522.411ZM534.117 324.18C532.624 324.18 531.404 323.7 530.457 322.74C529.524 321.767 529.057 320.48 529.057 318.88V318.72C529.057 317.147 529.511 315.86 530.417 314.86C531.337 313.86 532.517 313.36 533.957 313.36C535.291 313.36 536.404 313.793 537.297 314.66C538.204 315.513 538.657 316.813 538.657 318.56V319.1H530.777C530.817 320.3 531.117 321.22 531.677 321.86C532.251 322.487 533.071 322.8 534.137 322.8C535.777 322.8 536.704 322.193 536.917 320.98H538.577C538.404 322.007 537.917 322.8 537.117 323.36C536.317 323.907 535.317 324.18 534.117 324.18ZM530.837 317.76H536.957C536.811 315.747 535.811 314.74 533.957 314.74C533.117 314.74 532.424 315.013 531.877 315.56C531.331 316.093 530.984 316.827 530.837 317.76ZM545.685 324.18C544.191 324.18 542.971 323.7 542.025 322.74C541.091 321.767 540.625 320.48 540.625 318.88V318.72C540.625 317.147 541.078 315.86 541.985 314.86C542.905 313.86 544.085 313.36 545.525 313.36C546.858 313.36 547.971 313.793 548.865 314.66C549.771 315.513 550.225 316.813 550.225 318.56V319.1H542.345C542.385 320.3 542.685 321.22 543.245 321.86C543.818 322.487 544.638 322.8 545.705 322.8C547.345 322.8 548.271 322.193 548.485 320.98H550.145C549.971 322.007 549.485 322.8 548.685 323.36C547.885 323.907 546.885 324.18 545.685 324.18ZM542.405 317.76H548.525C548.378 315.747 547.378 314.74 545.525 314.74C544.685 314.74 543.991 315.013 543.445 315.56C542.898 316.093 542.551 316.827 542.405 317.76ZM553.012 324V308.54H554.692V324H553.012ZM560.909 324.18C559.882 324.18 559.042 323.927 558.389 323.42C557.749 322.9 557.429 322.127 557.429 321.1C557.429 319.98 557.922 319.16 558.909 318.64C559.909 318.12 561.162 317.86 562.669 317.86H564.169V317.1C564.169 316.26 563.996 315.66 563.649 315.3C563.302 314.927 562.729 314.74 561.929 314.74C560.489 314.74 559.689 315.367 559.529 316.62H557.869C557.976 315.5 558.416 314.68 559.189 314.16C559.962 313.627 560.902 313.36 562.009 313.36C564.556 313.36 565.829 314.607 565.829 317.1V324H564.169V322.68C563.369 323.68 562.282 324.18 560.909 324.18ZM561.069 322.86C561.976 322.86 562.716 322.64 563.289 322.2C563.876 321.747 564.169 321.127 564.169 320.34V319.04H562.729C560.302 319.04 559.089 319.727 559.089 321.1C559.089 322.273 559.749 322.86 561.069 322.86ZM569.29 324V313.54H570.95V315.2C571.203 314.667 571.623 314.227 572.21 313.88C572.796 313.533 573.496 313.36 574.31 313.36C575.456 313.36 576.356 313.7 577.01 314.38C577.663 315.06 577.99 316.127 577.99 317.58V324H576.33V317.46C576.33 316.54 576.13 315.867 575.73 315.44C575.33 315.013 574.71 314.8 573.87 314.8C573.056 314.8 572.363 315.053 571.79 315.56C571.23 316.067 570.95 316.767 570.95 317.66V324H569.29ZM585.783 324.18C584.303 324.18 583.076 323.7 582.103 322.74C581.143 321.767 580.663 320.48 580.663 318.88V318.72C580.663 317.147 581.15 315.86 582.123 314.86C583.11 313.86 584.316 313.36 585.743 313.36C586.943 313.36 587.963 313.66 588.803 314.26C589.643 314.847 590.136 315.767 590.283 317.02H588.643C588.403 315.5 587.436 314.74 585.743 314.74C584.77 314.74 583.963 315.107 583.323 315.84C582.696 316.56 582.383 317.52 582.383 318.72V318.88C582.383 320.133 582.69 321.1 583.303 321.78C583.93 322.46 584.763 322.8 585.803 322.8C586.59 322.8 587.263 322.58 587.823 322.14C588.396 321.687 588.723 321.053 588.803 320.24H590.343C590.236 321.387 589.756 322.333 588.903 323.08C588.063 323.813 587.023 324.18 585.783 324.18ZM597.329 324.18C595.836 324.18 594.616 323.7 593.669 322.74C592.736 321.767 592.269 320.48 592.269 318.88V318.72C592.269 317.147 592.722 315.86 593.629 314.86C594.549 313.86 595.729 313.36 597.169 313.36C598.502 313.36 599.616 313.793 600.509 314.66C601.416 315.513 601.869 316.813 601.869 318.56V319.1H593.989C594.029 320.3 594.329 321.22 594.889 321.86C595.462 322.487 596.282 322.8 597.349 322.8C598.989 322.8 599.916 322.193 600.129 320.98H601.789C601.616 322.007 601.129 322.8 600.329 323.36C599.529 323.907 598.529 324.18 597.329 324.18ZM594.049 317.76H600.169C600.022 315.747 599.022 314.74 597.169 314.74C596.329 314.74 595.636 315.013 595.089 315.56C594.542 316.093 594.196 316.827 594.049 317.76ZM604.616 324V313.54H606.276V315.42C606.636 314.767 607.076 314.267 607.596 313.92C608.13 313.573 608.836 313.387 609.716 313.36V314.92C608.57 314.973 607.71 315.24 607.136 315.72C606.563 316.2 606.276 317.047 606.276 318.26V324H604.616ZM615.478 324.18C614.225 324.18 613.238 323.88 612.518 323.28C611.812 322.68 611.432 321.847 611.378 320.78H612.998C613.132 322.127 613.952 322.8 615.458 322.8C616.978 322.8 617.738 322.247 617.738 321.14C617.738 320.62 617.545 320.24 617.158 320C616.785 319.747 616.165 319.54 615.298 319.38C613.938 319.127 612.992 318.78 612.458 318.34C611.925 317.887 611.658 317.207 611.658 316.3C611.658 315.393 612.018 314.68 612.738 314.16C613.472 313.627 614.292 313.36 615.198 313.36C617.465 313.36 618.725 314.367 618.978 316.38H617.378C617.258 315.807 617.025 315.393 616.678 315.14C616.332 314.873 615.832 314.74 615.178 314.74C614.578 314.74 614.098 314.88 613.738 315.16C613.378 315.427 613.198 315.787 613.198 316.24C613.198 316.72 613.365 317.073 613.698 317.3C614.045 317.527 614.692 317.727 615.638 317.9C616.265 318.02 616.765 318.14 617.138 318.26C617.525 318.367 617.898 318.533 618.258 318.76C618.632 318.987 618.898 319.287 619.058 319.66C619.232 320.02 619.318 320.467 619.318 321C619.318 321.973 618.985 322.747 618.318 323.32C617.665 323.893 616.718 324.18 615.478 324.18ZM629.641 324L626.421 313.54H628.221L630.661 321.96L633.201 313.54H634.641L637.021 321.96L639.481 313.54H641.181L637.921 324H636.081L633.901 316.16L631.461 324H629.641ZM643.619 324V308.54H645.279V315.2C645.533 314.667 645.953 314.227 646.539 313.88C647.126 313.533 647.826 313.36 648.639 313.36C649.786 313.36 650.686 313.7 651.339 314.38C651.993 315.06 652.319 316.127 652.319 317.58V324H650.659V317.46C650.659 316.54 650.459 315.867 650.059 315.44C649.659 315.013 649.039 314.8 648.199 314.8C647.386 314.8 646.693 315.053 646.119 315.56C645.559 316.067 645.279 316.767 645.279 317.66V324H643.619ZM660.133 322.8C661.173 322.8 661.999 322.44 662.613 321.72C663.239 321 663.553 320.047 663.553 318.86V318.72C663.553 317.507 663.239 316.54 662.613 315.82C661.999 315.1 661.173 314.74 660.133 314.74C659.079 314.74 658.246 315.1 657.633 315.82C657.019 316.54 656.713 317.5 656.713 318.7V318.86C656.713 320.06 657.019 321.02 657.633 321.74C658.246 322.447 659.079 322.8 660.133 322.8ZM660.113 324.18C658.633 324.18 657.406 323.68 656.433 322.68C655.473 321.667 654.993 320.393 654.993 318.86V318.7C654.993 317.14 655.473 315.86 656.433 314.86C657.406 313.86 658.639 313.36 660.133 313.36C661.626 313.36 662.853 313.86 663.813 314.86C664.786 315.847 665.273 317.12 665.273 318.68V318.84C665.273 320.413 664.786 321.7 663.813 322.7C662.839 323.687 661.606 324.18 660.113 324.18ZM675.636 324L672.416 313.54H674.216L676.656 321.96L679.196 313.54H680.636L683.016 321.96L685.476 313.54H687.176L683.916 324H682.076L679.896 316.16L677.456 324H675.636ZM692.039 324.18C691.013 324.18 690.173 323.927 689.519 323.42C688.879 322.9 688.559 322.127 688.559 321.1C688.559 319.98 689.053 319.16 690.039 318.64C691.039 318.12 692.293 317.86 693.799 317.86H695.299V317.1C695.299 316.26 695.126 315.66 694.779 315.3C694.433 314.927 693.859 314.74 693.059 314.74C691.619 314.74 690.819 315.367 690.659 316.62H688.999C689.106 315.5 689.546 314.68 690.319 314.16C691.093 313.627 692.033 313.36 693.139 313.36C695.686 313.36 696.959 314.607 696.959 317.1V324H695.299V322.68C694.499 323.68 693.413 324.18 692.039 324.18ZM692.199 322.86C693.106 322.86 693.846 322.64 694.419 322.2C695.006 321.747 695.299 321.127 695.299 320.34V319.04H693.859C691.433 319.04 690.219 319.727 690.219 321.1C690.219 322.273 690.879 322.86 692.199 322.86ZM700.42 324V313.54H702.08V315.2C702.334 314.667 702.754 314.227 703.34 313.88C703.927 313.533 704.627 313.36 705.44 313.36C706.587 313.36 707.487 313.7 708.14 314.38C708.794 315.06 709.12 316.127 709.12 317.58V324H707.46V317.46C707.46 316.54 707.26 315.867 706.86 315.44C706.46 315.013 705.84 314.8 705 314.8C704.187 314.8 703.494 315.053 702.92 315.56C702.36 316.067 702.08 316.767 702.08 317.66V324H700.42ZM715.753 324.14C714.833 324.14 714.133 323.893 713.653 323.4C713.173 322.907 712.933 322.233 712.933 321.38V314.94H711.433V313.54H712.933V311.16H714.593V313.54H717.033V314.94H714.593V321.22C714.593 322.233 715.027 322.74 715.893 322.74C716.373 322.74 716.8 322.667 717.173 322.52V323.92C716.76 324.067 716.287 324.14 715.753 324.14ZM727.996 324.18C726.969 324.18 726.129 323.927 725.476 323.42C724.836 322.9 724.516 322.127 724.516 321.1C724.516 319.98 725.009 319.16 725.996 318.64C726.996 318.12 728.249 317.86 729.756 317.86H731.256V317.1C731.256 316.26 731.082 315.66 730.736 315.3C730.389 314.927 729.816 314.74 729.016 314.74C727.576 314.74 726.776 315.367 726.616 316.62H724.956C725.062 315.5 725.502 314.68 726.276 314.16C727.049 313.627 727.989 313.36 729.096 313.36C731.642 313.36 732.916 314.607 732.916 317.1V324H731.256V322.68C730.456 323.68 729.369 324.18 727.996 324.18ZM728.156 322.86C729.062 322.86 729.802 322.64 730.376 322.2C730.962 321.747 731.256 321.127 731.256 320.34V319.04H729.816C727.389 319.04 726.176 319.727 726.176 321.1C726.176 322.273 726.836 322.86 728.156 322.86ZM745.109 324.18C743.856 324.18 742.869 323.88 742.149 323.28C741.443 322.68 741.063 321.847 741.009 320.78H742.629C742.763 322.127 743.583 322.8 745.089 322.8C746.609 322.8 747.369 322.247 747.369 321.14C747.369 320.62 747.176 320.24 746.789 320C746.416 319.747 745.796 319.54 744.929 319.38C743.569 319.127 742.623 318.78 742.089 318.34C741.556 317.887 741.289 317.207 741.289 316.3C741.289 315.393 741.649 314.68 742.369 314.16C743.103 313.627 743.923 313.36 744.829 313.36C747.096 313.36 748.356 314.367 748.609 316.38H747.009C746.889 315.807 746.656 315.393 746.309 315.14C745.963 314.873 745.463 314.74 744.809 314.74C744.209 314.74 743.729 314.88 743.369 315.16C743.009 315.427 742.829 315.787 742.829 316.24C742.829 316.72 742.996 317.073 743.329 317.3C743.676 317.527 744.323 317.727 745.269 317.9C745.896 318.02 746.396 318.14 746.769 318.26C747.156 318.367 747.529 318.533 747.889 318.76C748.263 318.987 748.529 319.287 748.689 319.66C748.863 320.02 748.949 320.467 748.949 321C748.949 321.973 748.616 322.747 747.949 323.32C747.296 323.893 746.349 324.18 745.109 324.18ZM751.719 324V313.54H753.379V324H751.719ZM753.279 311.04C753.065 311.253 752.812 311.36 752.519 311.36C752.225 311.36 751.965 311.253 751.739 311.04C751.525 310.827 751.419 310.567 751.419 310.26C751.419 309.953 751.525 309.693 751.739 309.48C751.965 309.267 752.225 309.16 752.519 309.16C752.812 309.16 753.065 309.267 753.279 309.48C753.505 309.693 753.619 309.953 753.619 310.26C753.619 310.567 753.505 310.827 753.279 311.04ZM756.976 324V313.54H758.636V315.14C758.89 314.62 759.29 314.193 759.836 313.86C760.396 313.527 761.036 313.36 761.756 313.36C763.29 313.36 764.31 314.013 764.816 315.32C765.15 314.68 765.65 314.193 766.316 313.86C766.996 313.527 767.69 313.36 768.396 313.36C769.423 313.36 770.263 313.7 770.916 314.38C771.583 315.047 771.916 316.093 771.916 317.52V324H770.256V317.4C770.256 315.667 769.516 314.8 768.036 314.8C767.29 314.8 766.643 315.047 766.096 315.54C765.55 316.033 765.276 316.72 765.276 317.6V324H763.616V317.4C763.616 315.667 762.876 314.8 761.396 314.8C760.65 314.8 760.003 315.047 759.456 315.54C758.91 316.033 758.636 316.72 758.636 317.6V324H756.976ZM775.38 327.64V313.54H777.04V315.3C777.36 314.767 777.846 314.313 778.5 313.94C779.153 313.553 779.846 313.36 780.58 313.36C781.98 313.36 783.12 313.84 784 314.8C784.893 315.747 785.34 317.02 785.34 318.62V318.78C785.34 320.393 784.9 321.7 784.02 322.7C783.153 323.687 782.006 324.18 780.58 324.18C779.766 324.18 779.053 324.007 778.44 323.66C777.826 323.3 777.36 322.84 777.04 322.28V327.64H775.38ZM780.42 322.8C781.46 322.8 782.253 322.46 782.8 321.78C783.346 321.1 783.62 320.127 783.62 318.86V318.7C783.62 317.433 783.313 316.46 782.7 315.78C782.1 315.087 781.333 314.74 780.4 314.74C779.386 314.74 778.56 315.08 777.92 315.76C777.293 316.427 776.98 317.407 776.98 318.7V318.86C776.98 320.153 777.286 321.133 777.9 321.8C778.526 322.467 779.366 322.8 780.42 322.8ZM788.159 324V308.54H789.839V324H788.159ZM797.716 324.18C796.223 324.18 795.003 323.7 794.056 322.74C793.123 321.767 792.656 320.48 792.656 318.88V318.72C792.656 317.147 793.109 315.86 794.016 314.86C794.936 313.86 796.116 313.36 797.556 313.36C798.889 313.36 800.003 313.793 800.896 314.66C801.803 315.513 802.256 316.813 802.256 318.56V319.1H794.376C794.416 320.3 794.716 321.22 795.276 321.86C795.849 322.487 796.669 322.8 797.736 322.8C799.376 322.8 800.303 322.193 800.516 320.98H802.176C802.003 322.007 801.516 322.8 800.716 323.36C799.916 323.907 798.916 324.18 797.716 324.18ZM794.436 317.76H800.556C800.409 315.747 799.409 314.74 797.556 314.74C796.716 314.74 796.023 315.013 795.476 315.56C794.929 316.093 794.583 316.827 794.436 317.76ZM812.596 324L809.376 313.54H811.176L813.616 321.96L816.156 313.54H817.596L819.976 321.96L822.436 313.54H824.136L820.876 324H819.036L816.856 316.16L814.416 324H812.596ZM829 324.18C827.973 324.18 827.133 323.927 826.48 323.42C825.84 322.9 825.52 322.127 825.52 321.1C825.52 319.98 826.013 319.16 827 318.64C828 318.12 829.253 317.86 830.76 317.86H832.26V317.1C832.26 316.26 832.086 315.66 831.74 315.3C831.393 314.927 830.82 314.74 830.02 314.74C828.58 314.74 827.78 315.367 827.62 316.62H825.96C826.066 315.5 826.506 314.68 827.28 314.16C828.053 313.627 828.993 313.36 830.1 313.36C832.646 313.36 833.92 314.607 833.92 317.1V324H832.26V322.68C831.46 323.68 830.373 324.18 829 324.18ZM829.16 322.86C830.066 322.86 830.806 322.64 831.38 322.2C831.966 321.747 832.26 321.127 832.26 320.34V319.04H830.82C828.393 319.04 827.18 319.727 827.18 321.1C827.18 322.273 827.84 322.86 829.16 322.86ZM838.027 327.64L840.007 322.92L835.907 313.54H837.687L840.887 321.04L843.787 313.54H845.487L839.707 327.64H838.027ZM856.546 324.14C855.626 324.14 854.926 323.893 854.446 323.4C853.966 322.907 853.726 322.233 853.726 321.38V314.94H852.226V313.54H853.726V311.16H855.386V313.54H857.826V314.94H855.386V321.22C855.386 322.233 855.82 322.74 856.686 322.74C857.166 322.74 857.593 322.667 857.966 322.52V323.92C857.553 324.067 857.08 324.14 856.546 324.14ZM865.036 322.8C866.076 322.8 866.902 322.44 867.516 321.72C868.142 321 868.456 320.047 868.456 318.86V318.72C868.456 317.507 868.142 316.54 867.516 315.82C866.902 315.1 866.076 314.74 865.036 314.74C863.982 314.74 863.149 315.1 862.536 315.82C861.922 316.54 861.616 317.5 861.616 318.7V318.86C861.616 320.06 861.922 321.02 862.536 321.74C863.149 322.447 863.982 322.8 865.036 322.8ZM865.016 324.18C863.536 324.18 862.309 323.68 861.336 322.68C860.376 321.667 859.896 320.393 859.896 318.86V318.7C859.896 317.14 860.376 315.86 861.336 314.86C862.309 313.86 863.542 313.36 865.036 313.36C866.529 313.36 867.756 313.86 868.716 314.86C869.689 315.847 870.176 317.12 870.176 318.68V318.84C870.176 320.413 869.689 321.7 868.716 322.7C867.742 323.687 866.509 324.18 865.016 324.18ZM878.439 327.64V313.54H880.099V315.3C880.419 314.767 880.906 314.313 881.559 313.94C882.212 313.553 882.906 313.36 883.639 313.36C885.039 313.36 886.179 313.84 887.059 314.8C887.952 315.747 888.399 317.02 888.399 318.62V318.78C888.399 320.393 887.959 321.7 887.079 322.7C886.212 323.687 885.066 324.18 883.639 324.18C882.826 324.18 882.112 324.007 881.499 323.66C880.886 323.3 880.419 322.84 880.099 322.28V327.64H878.439ZM883.479 322.8C884.519 322.8 885.312 322.46 885.859 321.78C886.406 321.1 886.679 320.127 886.679 318.86V318.7C886.679 317.433 886.372 316.46 885.759 315.78C885.159 315.087 884.392 314.74 883.459 314.74C882.446 314.74 881.619 315.08 880.979 315.76C880.352 316.427 880.039 317.407 880.039 318.7V318.86C880.039 320.153 880.346 321.133 880.959 321.8C881.586 322.467 882.426 322.8 883.479 322.8ZM891.218 324V308.54H892.898V324H891.218ZM899.115 324.18C898.089 324.18 897.249 323.927 896.595 323.42C895.955 322.9 895.635 322.127 895.635 321.1C895.635 319.98 896.129 319.16 897.115 318.64C898.115 318.12 899.369 317.86 900.875 317.86H902.375V317.1C902.375 316.26 902.202 315.66 901.855 315.3C901.509 314.927 900.935 314.74 900.135 314.74C898.695 314.74 897.895 315.367 897.735 316.62H896.075C896.182 315.5 896.622 314.68 897.395 314.16C898.169 313.627 899.109 313.36 900.215 313.36C902.762 313.36 904.035 314.607 904.035 317.1V324H902.375V322.68C901.575 323.68 900.489 324.18 899.115 324.18ZM899.275 322.86C900.182 322.86 900.922 322.64 901.495 322.2C902.082 321.747 902.375 321.127 902.375 320.34V319.04H900.935C898.509 319.04 897.295 319.727 897.295 321.1C897.295 322.273 897.955 322.86 899.275 322.86ZM907.496 324V313.54H909.156V315.2C909.409 314.667 909.829 314.227 910.416 313.88C911.003 313.533 911.703 313.36 912.516 313.36C913.663 313.36 914.563 313.7 915.216 314.38C915.869 315.06 916.196 316.127 916.196 317.58V324H914.536V317.46C914.536 316.54 914.336 315.867 913.936 315.44C913.536 315.013 912.916 314.8 912.076 314.8C911.263 314.8 910.569 315.053 909.996 315.56C909.436 316.067 909.156 316.767 909.156 317.66V324H907.496ZM928.322 324.14C927.402 324.14 926.702 323.893 926.222 323.4C925.742 322.907 925.502 322.233 925.502 321.38V314.94H924.002V313.54H925.502V311.16H927.162V313.54H929.602V314.94H927.162V321.22C927.162 322.233 927.595 322.74 928.462 322.74C928.942 322.74 929.369 322.667 929.742 322.52V323.92C929.329 324.067 928.855 324.14 928.322 324.14ZM932.451 324V308.54H934.111V315.2C934.365 314.667 934.785 314.227 935.371 313.88C935.958 313.533 936.658 313.36 937.471 313.36C938.618 313.36 939.518 313.7 940.171 314.38C940.825 315.06 941.151 316.127 941.151 317.58V324H939.491V317.46C939.491 316.54 939.291 315.867 938.891 315.44C938.491 315.013 937.871 314.8 937.031 314.8C936.218 314.8 935.525 315.053 934.951 315.56C934.391 316.067 934.111 316.767 934.111 317.66V324H932.451ZM948.885 324.18C947.391 324.18 946.171 323.7 945.225 322.74C944.291 321.767 943.825 320.48 943.825 318.88V318.72C943.825 317.147 944.278 315.86 945.185 314.86C946.105 313.86 947.285 313.36 948.725 313.36C950.058 313.36 951.171 313.793 952.065 314.66C952.971 315.513 953.425 316.813 953.425 318.56V319.1H945.545C945.585 320.3 945.885 321.22 946.445 321.86C947.018 322.487 947.838 322.8 948.905 322.8C950.545 322.8 951.471 322.193 951.685 320.98H953.345C953.171 322.007 952.685 322.8 951.885 323.36C951.085 323.907 950.085 324.18 948.885 324.18ZM945.605 317.76H951.725C951.578 315.747 950.578 314.74 948.725 314.74C947.885 314.74 947.191 315.013 946.645 315.56C946.098 316.093 945.751 316.827 945.605 317.76ZM956.212 324V313.54H957.872V324H956.212ZM957.772 311.04C957.558 311.253 957.305 311.36 957.012 311.36C956.718 311.36 956.458 311.253 956.232 311.04C956.018 310.827 955.912 310.567 955.912 310.26C955.912 309.953 956.018 309.693 956.232 309.48C956.458 309.267 956.718 309.16 957.012 309.16C957.305 309.16 957.558 309.267 957.772 309.48C957.998 309.693 958.112 309.953 958.112 310.26C958.112 310.567 957.998 310.827 957.772 311.04ZM961.469 324V313.54H963.129V315.42C963.489 314.767 963.929 314.267 964.449 313.92C964.983 313.573 965.689 313.387 966.569 313.36V314.92C965.423 314.973 964.563 315.24 963.989 315.72C963.416 316.2 963.129 317.047 963.129 318.26V324H961.469ZM977.922 324.18C976.669 324.18 975.682 323.88 974.962 323.28C974.255 322.68 973.875 321.847 973.822 320.78H975.442C975.575 322.127 976.395 322.8 977.902 322.8C979.422 322.8 980.182 322.247 980.182 321.14C980.182 320.62 979.989 320.24 979.602 320C979.229 319.747 978.609 319.54 977.742 319.38C976.382 319.127 975.435 318.78 974.902 318.34C974.369 317.887 974.102 317.207 974.102 316.3C974.102 315.393 974.462 314.68 975.182 314.16C975.915 313.627 976.735 313.36 977.642 313.36C979.909 313.36 981.169 314.367 981.422 316.38H979.822C979.702 315.807 979.469 315.393 979.122 315.14C978.775 314.873 978.275 314.74 977.622 314.74C977.022 314.74 976.542 314.88 976.182 315.16C975.822 315.427 975.642 315.787 975.642 316.24C975.642 316.72 975.809 317.073 976.142 317.3C976.489 317.527 977.135 317.727 978.082 317.9C978.709 318.02 979.209 318.14 979.582 318.26C979.969 318.367 980.342 318.533 980.702 318.76C981.075 318.987 981.342 319.287 981.502 319.66C981.675 320.02 981.762 320.467 981.762 321C981.762 321.973 981.429 322.747 980.762 323.32C980.109 323.893 979.162 324.18 977.922 324.18ZM988.831 324.18C987.351 324.18 986.125 323.7 985.151 322.74C984.191 321.767 983.711 320.48 983.711 318.88V318.72C983.711 317.147 984.198 315.86 985.171 314.86C986.158 313.86 987.365 313.36 988.791 313.36C989.991 313.36 991.011 313.66 991.851 314.26C992.691 314.847 993.185 315.767 993.331 317.02H991.691C991.451 315.5 990.485 314.74 988.791 314.74C987.818 314.74 987.011 315.107 986.371 315.84C985.745 316.56 985.431 317.52 985.431 318.72V318.88C985.431 320.133 985.738 321.1 986.351 321.78C986.978 322.46 987.811 322.8 988.851 322.8C989.638 322.8 990.311 322.58 990.871 322.14C991.445 321.687 991.771 321.053 991.851 320.24H993.391C993.285 321.387 992.805 322.333 991.951 323.08C991.111 323.813 990.071 324.18 988.831 324.18ZM996.098 324V308.54H997.758V315.2C998.011 314.667 998.431 314.227 999.018 313.88C999.604 313.533 1000.3 313.36 1001.12 313.36C1002.26 313.36 1003.16 313.7 1003.82 314.38C1004.47 315.06 1004.8 316.127 1004.8 317.58V324H1003.14V317.46C1003.14 316.54 1002.94 315.867 1002.54 315.44C1002.14 315.013 1001.52 314.8 1000.68 314.8C999.864 314.8 999.171 315.053 998.598 315.56C998.038 316.067 997.758 316.767 997.758 317.66V324H996.098ZM1012.53 324.18C1011.04 324.18 1009.82 323.7 1008.87 322.74C1007.94 321.767 1007.47 320.48 1007.47 318.88V318.72C1007.47 317.147 1007.92 315.86 1008.83 314.86C1009.75 313.86 1010.93 313.36 1012.37 313.36C1013.7 313.36 1014.82 313.793 1015.71 314.66C1016.62 315.513 1017.07 316.813 1017.07 318.56V319.1H1009.19C1009.23 320.3 1009.53 321.22 1010.09 321.86C1010.66 322.487 1011.48 322.8 1012.55 322.8C1014.19 322.8 1015.12 322.193 1015.33 320.98H1016.99C1016.82 322.007 1016.33 322.8 1015.53 323.36C1014.73 323.907 1013.73 324.18 1012.53 324.18ZM1009.25 317.76H1015.37C1015.22 315.747 1014.22 314.74 1012.37 314.74C1011.53 314.74 1010.84 315.013 1010.29 315.56C1009.74 316.093 1009.4 316.827 1009.25 317.76ZM1023.76 324.18C1022.36 324.18 1021.22 323.713 1020.34 322.78C1019.47 321.847 1019.04 320.58 1019.04 318.98V318.82C1019.04 317.22 1019.49 315.913 1020.4 314.9C1021.3 313.873 1022.48 313.36 1023.92 313.36C1025.46 313.36 1026.6 313.98 1027.34 315.22V308.54H1029V324H1027.34V322.2C1027.02 322.733 1026.52 323.2 1025.86 323.6C1025.19 323.987 1024.49 324.18 1023.76 324.18ZM1023.94 322.8C1024.96 322.8 1025.8 322.467 1026.44 321.8C1027.08 321.12 1027.4 320.133 1027.4 318.84V318.68C1027.4 317.373 1027.1 316.393 1026.52 315.74C1025.94 315.073 1025.13 314.74 1024.08 314.74C1023.04 314.74 1022.22 315.093 1021.64 315.8C1021.05 316.493 1020.76 317.473 1020.76 318.74V318.9C1020.76 320.167 1021.05 321.133 1021.64 321.8C1022.24 322.467 1023 322.8 1023.94 322.8ZM1036.1 324.18C1034.99 324.18 1034.1 323.853 1033.44 323.2C1032.78 322.547 1032.46 321.533 1032.46 320.16V313.54H1034.12V320.08C1034.12 321 1034.31 321.673 1034.7 322.1C1035.1 322.527 1035.71 322.74 1036.54 322.74C1037.32 322.74 1038 322.487 1038.56 321.98C1039.13 321.473 1039.42 320.773 1039.42 319.88V313.54H1041.08V324H1039.42V322.34C1039.16 322.873 1038.74 323.313 1038.16 323.66C1037.58 324.007 1036.9 324.18 1036.1 324.18ZM1044.67 324V308.54H1046.35V324H1044.67ZM1054.23 324.18C1052.74 324.18 1051.52 323.7 1050.57 322.74C1049.64 321.767 1049.17 320.48 1049.17 318.88V318.72C1049.17 317.147 1049.62 315.86 1050.53 314.86C1051.45 313.86 1052.63 313.36 1054.07 313.36C1055.4 313.36 1056.52 313.793 1057.41 314.66C1058.32 315.513 1058.77 316.813 1058.77 318.56V319.1H1050.89C1050.93 320.3 1051.23 321.22 1051.79 321.86C1052.36 322.487 1053.18 322.8 1054.25 322.8C1055.89 322.8 1056.82 322.193 1057.03 320.98H1058.69C1058.52 322.007 1058.03 322.8 1057.23 323.36C1056.43 323.907 1055.43 324.18 1054.23 324.18ZM1050.95 317.76H1057.07C1056.92 315.747 1055.92 314.74 1054.07 314.74C1053.23 314.74 1052.54 315.013 1051.99 315.56C1051.44 316.093 1051.1 316.827 1050.95 317.76ZM1063.46 323.74C1063.21 323.98 1062.91 324.1 1062.56 324.1C1062.21 324.1 1061.91 323.98 1061.66 323.74C1061.41 323.487 1061.28 323.18 1061.28 322.82C1061.28 322.46 1061.41 322.16 1061.66 321.92C1061.91 321.667 1062.21 321.54 1062.56 321.54C1062.91 321.54 1063.21 321.667 1063.46 321.92C1063.71 322.16 1063.84 322.46 1063.84 322.82C1063.84 323.18 1063.71 323.487 1063.46 323.74Z" fill="white"/>
</svg>
