<svg width="199" height="115" viewBox="0 0 199 115" fill="none" xmlns="http://www.w3.org/2000/svg">
<g filter="url(#filter0_d)">
<g clip-path="url(#clip0)">
<path d="M71.959 58.5703L76.022 46.4153H78.98L82.992 58.5703H80.646L79.677 55.5613H75.036L74.084 58.5703H71.959ZM77.365 48.2683L75.563 53.9123H79.15L77.365 48.2683ZM84.9281 58.5703V45.5653H86.9851V58.5703H84.9281ZM89.7434 58.5703V45.5653H91.8004V58.5703H89.7434ZM98.9284 58.5703V46.4153H102.838C104.244 46.4153 105.343 46.7326 106.136 47.3673C106.941 47.9906 107.343 48.9256 107.343 50.1723V50.2403C107.343 51.4756 106.941 52.405 106.136 53.0283C105.332 53.6403 104.249 53.9463 102.889 53.9463H101.189V58.5703H98.9284ZM101.189 52.3143H102.838C103.586 52.3143 104.153 52.1386 104.538 51.7873C104.935 51.4246 105.133 50.909 105.133 50.2403V50.1723C105.133 48.835 104.368 48.1663 102.838 48.1663H101.189V52.3143ZM111.481 58.7403C110.608 58.7403 109.894 58.525 109.339 58.0943C108.783 57.6523 108.506 56.9893 108.506 56.1053C108.506 55.1306 108.919 54.4166 109.747 53.9633C110.574 53.51 111.679 53.2833 113.062 53.2833H114.167V52.8243C114.167 52.2123 114.042 51.7646 113.793 51.4813C113.555 51.1866 113.141 51.0393 112.552 51.0393C111.52 51.0393 110.954 51.504 110.852 52.4333H108.863C108.942 51.4473 109.327 50.7106 110.019 50.2233C110.721 49.736 111.605 49.4923 112.671 49.4923C115.039 49.4923 116.224 50.5746 116.224 52.7393V58.5703H114.201V57.4823C113.566 58.321 112.659 58.7403 111.481 58.7403ZM111.974 57.2613C112.62 57.2613 113.147 57.1026 113.555 56.7853C113.963 56.4566 114.167 56.0146 114.167 55.4593V54.5753H113.113C111.401 54.5753 110.546 55.057 110.546 56.0203C110.546 56.8476 111.022 57.2613 111.974 57.2613ZM118.781 58.5703V49.6793H120.838V51.3453C121.428 50.1553 122.391 49.5546 123.728 49.5433V51.4643C122.765 51.4756 122.04 51.6683 121.552 52.0423C121.076 52.4163 120.838 53.051 120.838 53.9463V58.5703H118.781ZM128.847 58.7233C127.975 58.7233 127.306 58.4966 126.841 58.0433C126.388 57.59 126.161 56.9383 126.161 56.0883V51.2263H124.971V49.6793H126.161V47.7243H128.218V49.6793H130.173V51.2263H128.218V55.9013C128.218 56.6606 128.558 57.0403 129.238 57.0403C129.635 57.0403 129.969 56.9836 130.241 56.8703V58.5023C129.845 58.6496 129.38 58.7233 128.847 58.7233ZM132.297 58.5703V49.6793H134.354V51.0903C134.58 50.6256 134.943 50.246 135.442 49.9513C135.94 49.6453 136.535 49.4923 137.227 49.4923C138.167 49.4923 138.91 49.7813 139.454 50.3593C139.998 50.926 140.27 51.7986 140.27 52.9773V58.5703H138.213V53.1643C138.213 52.4956 138.071 52.0026 137.788 51.6853C137.504 51.368 137.057 51.2093 136.445 51.2093C135.833 51.2093 135.328 51.3963 134.932 51.7703C134.546 52.133 134.354 52.6543 134.354 53.3343V58.5703H132.297ZM146.749 58.7403C145.423 58.7403 144.341 58.3323 143.502 57.5163C142.664 56.7003 142.244 55.601 142.244 54.2183V54.0823C142.244 52.7223 142.658 51.6173 143.485 50.7673C144.324 49.9173 145.384 49.4923 146.664 49.4923C147.866 49.4923 148.863 49.8663 149.656 50.6143C150.461 51.3623 150.863 52.4843 150.863 53.9803V54.5753H144.352C144.386 55.4253 144.613 56.077 145.032 56.5303C145.452 56.9836 146.041 57.2103 146.8 57.2103C148.002 57.2103 148.682 56.757 148.84 55.8503H150.829C150.682 56.7796 150.251 57.4936 149.537 57.9923C148.823 58.491 147.894 58.7403 146.749 58.7403ZM144.386 53.1983H148.823C148.721 51.725 148.002 50.9883 146.664 50.9883C146.052 50.9883 145.542 51.1866 145.134 51.5833C144.738 51.9686 144.488 52.507 144.386 53.1983ZM152.901 58.5703V49.6793H154.958V51.3453C155.547 50.1553 156.51 49.5546 157.848 49.5433V51.4643C156.884 51.4756 156.159 51.6683 155.672 52.0423C155.196 52.4163 154.958 53.051 154.958 53.9463V58.5703H152.901ZM162.901 58.7403C161.756 58.7403 160.861 58.4853 160.215 57.9753C159.569 57.4653 159.223 56.74 159.178 55.7993H161.116C161.172 56.2753 161.337 56.6323 161.609 56.8703C161.881 57.1083 162.306 57.2273 162.884 57.2273C163.949 57.2273 164.482 56.8476 164.482 56.0883C164.482 55.737 164.334 55.4763 164.04 55.3063C163.756 55.125 163.269 54.9776 162.578 54.8643C161.388 54.6716 160.555 54.3826 160.079 53.9973C159.603 53.6006 159.365 52.9886 159.365 52.1613C159.365 51.3226 159.693 50.671 160.351 50.2063C161.008 49.7303 161.79 49.4923 162.697 49.4923C164.827 49.4923 165.989 50.3876 166.182 52.1783H164.278C164.187 51.7703 164.017 51.47 163.768 51.2773C163.53 51.0846 163.173 50.9883 162.697 50.9883C162.255 50.9883 161.909 51.0846 161.66 51.2773C161.41 51.47 161.286 51.725 161.286 52.0423C161.286 52.3596 161.416 52.5976 161.677 52.7563C161.937 52.915 162.419 53.0566 163.122 53.1813C164.278 53.3626 165.122 53.6403 165.655 54.0143C166.187 54.3883 166.454 55.0173 166.454 55.9013C166.454 56.808 166.142 57.5106 165.519 58.0093C164.907 58.4966 164.034 58.7403 162.901 58.7403Z" fill="white"/>
</g>
<rect x="32" y="27.5703" width="135" height="51" stroke="white"/>
</g>
<defs>
<filter id="filter0_d" x="0.5" y="0.0703125" width="198" height="114" filterUnits="userSpaceOnUse" color-interpolation-filters="sRGB">
<feFlood flood-opacity="0" result="BackgroundImageFix"/>
<feColorMatrix in="SourceAlpha" type="matrix" values="0 0 0 0 0 0 0 0 0 0 0 0 0 0 0 0 0 0 127 0"/>
<feOffset dy="4"/>
<feGaussianBlur stdDeviation="15.5"/>
<feColorMatrix type="matrix" values="0 0 0 0 0 0 0 0 0 0 0 0 0 0 0 0 0 0 0.15 0"/>
<feBlend mode="normal" in2="BackgroundImageFix" result="effect1_dropShadow"/>
<feBlend mode="normal" in="SourceGraphic" in2="effect1_dropShadow" result="shape"/>
</filter>
<clipPath id="clip0">
<rect width="76" height="45" fill="white" transform="translate(61.5 30.5703)"/>
</clipPath>
</defs>
</svg>
