<svg width="167" height="65" viewBox="0 0 167 65" fill="none" xmlns="http://www.w3.org/2000/svg">
<g filter="url(#filter0_d)">
<rect width="136" height="65" fill="#4452FE"/>
<g clip-path="url(#clip0)">
<path d="M43.825 35V24.63H40.442V22.845H49.486V24.63H46.103V35H43.825ZM50.7375 35V26.109H52.7945V27.775C53.3838 26.585 54.3471 25.9843 55.6845 25.973V27.894C54.7211 27.9053 53.9958 28.098 53.5085 28.472C53.0325 28.846 52.7945 29.4807 52.7945 30.376V35H50.7375ZM58.7633 38.043L60.3783 34.099L56.8593 26.109H59.0863L61.4493 31.838L63.6253 26.109H65.6313L60.7863 38.043H58.7633ZM71.7946 35V22.845H79.3256V24.647H74.0556V28.268H78.2036V30.019H74.0556V35H71.7946ZM84.867 33.572C85.6264 33.572 86.2214 33.3113 86.652 32.79C87.094 32.2573 87.315 31.532 87.315 30.614V30.495C87.315 29.577 87.094 28.8573 86.652 28.336C86.2214 27.8033 85.6264 27.537 84.867 27.537C84.0964 27.537 83.49 27.7977 83.048 28.319C82.6174 28.8403 82.402 29.56 82.402 30.478V30.614C82.402 31.532 82.6174 32.2573 83.048 32.79C83.49 33.3113 84.0964 33.572 84.867 33.572ZM88.131 33.912C87.2697 34.7507 86.176 35.17 84.85 35.17C83.524 35.17 82.4304 34.7507 81.569 33.912C80.719 33.0733 80.294 31.9853 80.294 30.648V30.512C80.294 29.152 80.7247 28.047 81.586 27.197C82.4474 26.347 83.541 25.922 84.867 25.922C86.1817 25.922 87.2697 26.3413 88.131 27.18C88.9924 28.0187 89.423 29.1123 89.423 30.461V30.597C89.423 31.9683 88.9924 33.0733 88.131 33.912ZM91.4816 35V26.109H93.5386V27.775C94.128 26.585 95.0913 25.9843 96.4286 25.973V27.894C95.4653 27.9053 94.74 28.098 94.2526 28.472C93.7766 28.846 93.5386 29.4807 93.5386 30.376V35H91.4816ZM102.859 35V22.845H110.39V24.647H105.12V28.268H109.268V30.019H105.12V35H102.859ZM112.053 35V26.109H114.11V27.775C114.7 26.585 115.663 25.9843 117 25.973V27.894C116.037 27.9053 115.312 28.098 114.824 28.472C114.348 28.846 114.11 29.4807 114.11 30.376V35H112.053ZM122.754 35.17C121.428 35.17 120.346 34.762 119.507 33.946C118.668 33.13 118.249 32.0307 118.249 30.648V30.512C118.249 29.152 118.663 28.047 119.49 27.197C120.329 26.347 121.388 25.922 122.669 25.922C123.87 25.922 124.868 26.296 125.661 27.044C126.466 27.792 126.868 28.914 126.868 30.41V31.005H120.357C120.391 31.855 120.618 32.5067 121.037 32.96C121.456 33.4133 122.046 33.64 122.805 33.64C124.006 33.64 124.686 33.1867 124.845 32.28H126.834C126.687 33.2093 126.256 33.9233 125.542 34.422C124.828 34.9207 123.899 35.17 122.754 35.17ZM120.391 29.628H124.828C124.726 28.1547 124.006 27.418 122.669 27.418C122.057 27.418 121.547 27.6163 121.139 28.013C120.742 28.3983 120.493 28.9367 120.391 29.628ZM132.815 35.17C131.489 35.17 130.407 34.762 129.568 33.946C128.73 33.13 128.31 32.0307 128.31 30.648V30.512C128.31 29.152 128.724 28.047 129.551 27.197C130.39 26.347 131.45 25.922 132.73 25.922C133.932 25.922 134.929 26.296 135.722 27.044C136.527 27.792 136.929 28.914 136.929 30.41V31.005H130.418C130.452 31.855 130.679 32.5067 131.098 32.96C131.518 33.4133 132.107 33.64 132.866 33.64C134.068 33.64 134.748 33.1867 134.906 32.28H136.895C136.748 33.2093 136.317 33.9233 135.603 34.422C134.889 34.9207 133.96 35.17 132.815 35.17ZM130.452 29.628H134.889C134.787 28.1547 134.068 27.418 132.73 27.418C132.118 27.418 131.608 27.6163 131.2 28.013C130.804 28.3983 130.554 28.9367 130.452 29.628Z" fill="white"/>
</g>
</g>
<defs>
<filter id="filter0_d" x="-31" y="-27" width="198" height="127" filterUnits="userSpaceOnUse" color-interpolation-filters="sRGB">
<feFlood flood-opacity="0" result="BackgroundImageFix"/>
<feColorMatrix in="SourceAlpha" type="matrix" values="0 0 0 0 0 0 0 0 0 0 0 0 0 0 0 0 0 0 127 0"/>
<feOffset dy="4"/>
<feGaussianBlur stdDeviation="15.5"/>
<feColorMatrix type="matrix" values="0 0 0 0 0 0 0 0 0 0 0 0 0 0 0 0 0 0 0.15 0"/>
<feBlend mode="normal" in2="BackgroundImageFix" result="effect1_dropShadow"/>
<feBlend mode="normal" in="SourceGraphic" in2="effect1_dropShadow" result="shape"/>
</filter>
<clipPath id="clip0">
<rect width="76" height="45" fill="white" transform="translate(30 10)"/>
</clipPath>
</defs>
</svg>
