<svg width="252" height="97" viewBox="0 0 252 97" fill="none" xmlns="http://www.w3.org/2000/svg">
<g filter="url(#filter0_d)">
<rect width="190" height="52" transform="translate(31 27.5703)" fill="#4452FE"/>
<g clip-path="url(#clip0)">
<path d="M101.825 55.0703V44.7003H98.442V42.9153H107.486V44.7003H104.103V55.0703H101.825ZM108.737 55.0703V46.1793H110.794V47.8453C111.384 46.6553 112.347 46.0546 113.684 46.0433V47.9643C112.721 47.9756 111.996 48.1683 111.508 48.5423C111.032 48.9163 110.794 49.551 110.794 50.4463V55.0703H108.737ZM116.763 58.1133L118.378 54.1693L114.859 46.1793H117.086L119.449 51.9083L121.625 46.1793H123.631L118.786 58.1133H116.763ZM129.795 55.0703V42.9153H137.326V44.7173H132.056V48.3383H136.204V50.0893H132.056V55.0703H129.795ZM142.867 53.6423C143.626 53.6423 144.221 53.3816 144.652 52.8603C145.094 52.3276 145.315 51.6023 145.315 50.6843V50.5653C145.315 49.6473 145.094 48.9276 144.652 48.4063C144.221 47.8736 143.626 47.6073 142.867 47.6073C142.096 47.6073 141.49 47.868 141.048 48.3893C140.617 48.9106 140.402 49.6303 140.402 50.5483V50.6843C140.402 51.6023 140.617 52.3276 141.048 52.8603C141.49 53.3816 142.096 53.6423 142.867 53.6423ZM146.131 53.9823C145.27 54.821 144.176 55.2403 142.85 55.2403C141.524 55.2403 140.43 54.821 139.569 53.9823C138.719 53.1436 138.294 52.0556 138.294 50.7183V50.5823C138.294 49.2223 138.725 48.1173 139.586 47.2673C140.447 46.4173 141.541 45.9923 142.867 45.9923C144.182 45.9923 145.27 46.4116 146.131 47.2503C146.992 48.089 147.423 49.1826 147.423 50.5313V50.6673C147.423 52.0386 146.992 53.1436 146.131 53.9823ZM149.482 55.0703V46.1793H151.539V47.8453C152.128 46.6553 153.091 46.0546 154.429 46.0433V47.9643C153.465 47.9756 152.74 48.1683 152.253 48.5423C151.777 48.9163 151.539 49.551 151.539 50.4463V55.0703H149.482ZM160.859 55.0703V42.9153H168.39V44.7173H163.12V48.3383H167.268V50.0893H163.12V55.0703H160.859ZM170.053 55.0703V46.1793H172.11V47.8453C172.7 46.6553 173.663 46.0546 175 46.0433V47.9643C174.037 47.9756 173.312 48.1683 172.824 48.5423C172.348 48.9163 172.11 49.551 172.11 50.4463V55.0703H170.053ZM180.754 55.2403C179.428 55.2403 178.346 54.8323 177.507 54.0163C176.668 53.2003 176.249 52.101 176.249 50.7183V50.5823C176.249 49.2223 176.663 48.1173 177.49 47.2673C178.329 46.4173 179.388 45.9923 180.669 45.9923C181.87 45.9923 182.868 46.3663 183.661 47.1143C184.466 47.8623 184.868 48.9843 184.868 50.4803V51.0753H178.357C178.391 51.9253 178.618 52.577 179.037 53.0303C179.456 53.4836 180.046 53.7103 180.805 53.7103C182.006 53.7103 182.686 53.257 182.845 52.3503H184.834C184.687 53.2796 184.256 53.9936 183.542 54.4923C182.828 54.991 181.899 55.2403 180.754 55.2403ZM178.391 49.6983H182.828C182.726 48.225 182.006 47.4883 180.669 47.4883C180.057 47.4883 179.547 47.6866 179.139 48.0833C178.742 48.4686 178.493 49.007 178.391 49.6983ZM190.815 55.2403C189.489 55.2403 188.407 54.8323 187.568 54.0163C186.73 53.2003 186.31 52.101 186.31 50.7183V50.5823C186.31 49.2223 186.724 48.1173 187.551 47.2673C188.39 46.4173 189.45 45.9923 190.73 45.9923C191.932 45.9923 192.929 46.3663 193.722 47.1143C194.527 47.8623 194.929 48.9843 194.929 50.4803V51.0753H188.418C188.452 51.9253 188.679 52.577 189.098 53.0303C189.518 53.4836 190.107 53.7103 190.866 53.7103C192.068 53.7103 192.748 53.257 192.906 52.3503H194.895C194.748 53.2796 194.317 53.9936 193.603 54.4923C192.889 54.991 191.96 55.2403 190.815 55.2403ZM188.452 49.6983H192.889C192.787 48.225 192.068 47.4883 190.73 47.4883C190.118 47.4883 189.608 47.6866 189.2 48.0833C188.804 48.4686 188.554 49.007 188.452 49.6983Z" fill="white"/>
</g>
</g>
<defs>
<filter id="filter0_d" x="0" y="0.570312" width="252" height="114" filterUnits="userSpaceOnUse" color-interpolation-filters="sRGB">
<feFlood flood-opacity="0" result="BackgroundImageFix"/>
<feColorMatrix in="SourceAlpha" type="matrix" values="0 0 0 0 0 0 0 0 0 0 0 0 0 0 0 0 0 0 127 0"/>
<feOffset dy="4"/>
<feGaussianBlur stdDeviation="15.5"/>
<feColorMatrix type="matrix" values="0 0 0 0 0 0 0 0 0 0 0 0 0 0 0 0 0 0 0.15 0"/>
<feBlend mode="normal" in2="BackgroundImageFix" result="effect1_dropShadow"/>
<feBlend mode="normal" in="SourceGraphic" in2="effect1_dropShadow" result="shape"/>
</filter>
<clipPath id="clip0">
<rect width="118" height="45" fill="white" transform="translate(67 31.0703)"/>
</clipPath>
</defs>
</svg>
