<svg width="210" height="114" viewBox="0 0 210 114" fill="none" xmlns="http://www.w3.org/2000/svg">
<g filter="url(#filter0_d)">
<rect width="148" height="52" transform="translate(31 27)" fill="#4452FE"/>
<path d="M84.1016 50.5703C84.1016 50.0703 83.9245 49.6849 83.5703 49.4141C83.2214 49.1432 82.5885 48.8698 81.6719 48.5938C80.7552 48.3177 80.026 48.0104 79.4844 47.6719C78.4479 47.0208 77.9297 46.1719 77.9297 45.125C77.9297 44.2083 78.3021 43.4531 79.0469 42.8594C79.7969 42.2656 80.7682 41.9688 81.9609 41.9688C82.7526 41.9688 83.4583 42.1146 84.0781 42.4062C84.6979 42.6979 85.1849 43.1146 85.5391 43.6562C85.8932 44.1927 86.0703 44.7891 86.0703 45.4453H84.1016C84.1016 44.8516 83.9141 44.388 83.5391 44.0547C83.1693 43.7161 82.638 43.5469 81.9453 43.5469C81.2995 43.5469 80.7969 43.6849 80.4375 43.9609C80.0833 44.237 79.9062 44.6224 79.9062 45.1172C79.9062 45.5339 80.099 45.8828 80.4844 46.1641C80.8698 46.4401 81.5052 46.7109 82.3906 46.9766C83.276 47.237 83.987 47.5365 84.5234 47.875C85.0599 48.2083 85.4531 48.5938 85.7031 49.0312C85.9531 49.4635 86.0781 49.9714 86.0781 50.5547C86.0781 51.5026 85.7135 52.2578 84.9844 52.8203C84.2604 53.3776 83.276 53.6562 82.0312 53.6562C81.2083 53.6562 80.4505 53.5052 79.7578 53.2031C79.0703 52.8958 78.5339 52.474 78.1484 51.9375C77.7682 51.401 77.5781 50.776 77.5781 50.0625H79.5547C79.5547 50.7083 79.7682 51.2083 80.1953 51.5625C80.6224 51.9167 81.2344 52.0938 82.0312 52.0938C82.7188 52.0938 83.2344 51.9557 83.5781 51.6797C83.9271 51.3984 84.1016 51.0286 84.1016 50.5703ZM89.8484 53.5H87.95V45.0469H89.8484V53.5ZM87.8328 42.8516C87.8328 42.5599 87.924 42.3177 88.1062 42.125C88.2937 41.9323 88.5594 41.8359 88.9031 41.8359C89.2469 41.8359 89.5125 41.9323 89.7 42.125C89.8875 42.3177 89.9812 42.5599 89.9812 42.8516C89.9812 43.138 89.8875 43.3776 89.7 43.5703C89.5125 43.7578 89.2469 43.8516 88.9031 43.8516C88.5594 43.8516 88.2937 43.7578 88.1062 43.5703C87.924 43.3776 87.8328 43.138 87.8328 42.8516ZM91.7906 49.2109C91.7906 47.8984 92.0979 46.8516 92.7125 46.0703C93.3323 45.2839 94.1526 44.8906 95.1734 44.8906C96.137 44.8906 96.8948 45.2266 97.4469 45.8984L97.5328 45.0469H99.2437V53.2422C99.2437 54.3516 98.8974 55.2266 98.2047 55.8672C97.5172 56.5078 96.5875 56.8281 95.4156 56.8281C94.7958 56.8281 94.1891 56.6979 93.5953 56.4375C93.0068 56.1823 92.5589 55.8464 92.2516 55.4297L93.15 54.2891C93.7333 54.9818 94.4521 55.3281 95.3062 55.3281C95.9365 55.3281 96.4339 55.1562 96.7984 54.8125C97.163 54.474 97.3453 53.974 97.3453 53.3125V52.7422C96.7984 53.3516 96.0693 53.6562 95.1578 53.6562C94.1682 53.6562 93.3583 53.263 92.7281 52.4766C92.1031 51.6901 91.7906 50.6016 91.7906 49.2109ZM93.6812 49.375C93.6812 50.224 93.8531 50.8932 94.1969 51.3828C94.5458 51.8672 95.0276 52.1094 95.6422 52.1094C96.4078 52.1094 96.9755 51.7812 97.3453 51.125V47.4062C96.9859 46.7656 96.4234 46.4453 95.6578 46.4453C95.0328 46.4453 94.5458 46.6927 94.1969 47.1875C93.8531 47.6823 93.6812 48.4115 93.6812 49.375ZM103.163 45.0469L103.217 46.0234C103.842 45.2682 104.663 44.8906 105.678 44.8906C107.439 44.8906 108.334 45.8984 108.366 47.9141V53.5H106.467V48.0234C106.467 47.487 106.35 47.0911 106.116 46.8359C105.886 46.5755 105.509 46.4453 104.983 46.4453C104.217 46.4453 103.647 46.7917 103.272 47.4844V53.5H101.373V45.0469H103.163ZM123.195 42.125V49.7266C123.195 50.9349 122.807 51.8932 122.031 52.6016C121.26 53.3047 120.232 53.6562 118.945 53.6562C117.643 53.6562 116.609 53.3099 115.844 52.6172C115.078 51.9193 114.695 50.9531 114.695 49.7188V42.125H116.664V49.7344C116.664 50.4948 116.857 51.0755 117.242 51.4766C117.628 51.8776 118.195 52.0781 118.945 52.0781C120.466 52.0781 121.227 51.276 121.227 49.6719V42.125H123.195ZM132.731 49.3594C132.731 50.6667 132.434 51.7109 131.841 52.4922C131.247 53.2682 130.45 53.6562 129.45 53.6562C128.523 53.6562 127.781 53.3516 127.223 52.7422V56.75H125.325V45.0469H127.075L127.153 45.9062C127.71 45.2292 128.468 44.8906 129.427 44.8906C130.458 44.8906 131.265 45.276 131.848 46.0469C132.437 46.8125 132.731 47.8776 132.731 49.2422V49.3594ZM130.841 49.1953C130.841 48.3516 130.671 47.6823 130.333 47.1875C129.999 46.6927 129.52 46.4453 128.895 46.4453C128.119 46.4453 127.562 46.7656 127.223 47.4062V51.1562C127.567 51.8125 128.13 52.1406 128.911 52.1406C129.515 52.1406 129.986 51.8984 130.325 51.4141C130.669 50.9245 130.841 50.1849 130.841 49.1953Z" fill="white"/>
</g>
<defs>
<filter id="filter0_d" x="0" y="0" width="210" height="114" filterUnits="userSpaceOnUse" color-interpolation-filters="sRGB">
<feFlood flood-opacity="0" result="BackgroundImageFix"/>
<feColorMatrix in="SourceAlpha" type="matrix" values="0 0 0 0 0 0 0 0 0 0 0 0 0 0 0 0 0 0 127 0"/>
<feOffset dy="4"/>
<feGaussianBlur stdDeviation="15.5"/>
<feColorMatrix type="matrix" values="0 0 0 0 0 0 0 0 0 0 0 0 0 0 0 0 0 0 0.15 0"/>
<feBlend mode="normal" in2="BackgroundImageFix" result="effect1_dropShadow"/>
<feBlend mode="normal" in="SourceGraphic" in2="effect1_dropShadow" result="shape"/>
</filter>
</defs>
</svg>
